<svg xmlns="http://www.w3.org/2000/svg" width="631" height="200"><path fill="#952b2f" d="m217.25 82.8 4.14.01 10.83.05 11.08.04q10.86.03 21.7.1v3l-1.87.12L261 87c-1.06 2.62-1.06 2.62-2 6l-3 7h-46v2l-3 1v7c3.93 1.31 7.7 1.18 11.8 1.21l5.34.09 8.4.1q4.07.05 8.13.12l2.52.01c6.52.14 12.33 1.42 17.12 6.22 5.19 5.68 5.15 12.6 5 19.96-.54 5.8-1.8 10.87-6.1 15.02-6.36 4.51-11.47 5.16-19.15 5.14l-3.53.07q-5.08.06-10.15.06l-7.79.02q-18.3.07-36.59-.02c-1.22-3.78-.64-6 1.09-9.61 2.7-4.78 5.2-8.55 10.63-10.23 8.1-1.25 16.25-.86 24.4-.6l7.53.06q9.18.08 18.35.38c.13-5.75.13-5.75-1-8l-3.15-.06a2991 2991 0 0 1-16.71-.36c-26.24-.5-26.24-.5-33.14-7.58-4.9-5.74-4.7-13.03-4.38-20.2.64-6.35 2.57-10.35 7.2-14.68 7.61-5.08 15.56-4.39 24.43-4.32M194 91c-1.24 2.14-1.24 2.14-2 4 4.15 1.06 7.69.93 11.94.57 10.35-.78 20.69-.68 31.06-.63l5.85.01L255 95l4-8q-11.71-.15-23.43-.22l-7.97-.08q-5.74-.06-11.47-.1l-3.57-.05c-6.71 0-12.98.34-18.56 4.45"/><path fill="#6c0009" d="M348 99h20l1 35c2.63 1.31 4.73 1.21 7.66 1.32l3.07.11 3.9.13L396 136V99h20q.1 11.09.16 22.17.01 5.14.07 10.3.05 5.92.06 11.87l.05 3.68c0 8.26-.5 16.57-5.59 23.42-9.83 9.16-25.79 6.72-38.35 6.69h-14.84c-5.33-.01-5.33-.01-7.56-1.13 2.33-5.81 5.2-11.4 8-17l36-1 2-5-2.81.05q-5.21.08-10.42.11l-4.5.07c-18.56.31-18.56.31-25.08-5.92-4.4-6.66-5.64-12.38-5.48-20.19l.01-2.45q.03-3.84.1-7.67 0-2.63.03-5.24.06-6.37.15-12.76"/><path fill="#e55e6c" d="M295.63 98.64h2.4q2.5 0 5 .02 3.8.03 7.6.02l4.87.02h2.27c6.46.08 12.4 1 17.48 5.3l1.95 1.56c5.02 6.8 5.3 15.28 5.24 23.44l.06 2.79c0 7.29-1.29 14.48-6.18 20.16-6.42 6.1-13.46 6.27-21.94 6.12L312 158v-2h-7v2h-4v-2h-3v2l-5-1v-16l4.86-.15 6.33-.23 3.2-.09 3.09-.12 2.84-.1A25 25 0 0 0 321 138q.13-4.68.19-9.38l.07-2.69.03-2.58.05-2.38L321 119c-3.37-2.25-4.53-2.25-8.47-2.23h-3.23l-3.36.04h-3.38c-8.28.05-8.28.05-10.56 1.19v1.98q-.04 10.2-.15 20.39-.04 3.8-.05 7.6-.01 5.48-.1 10.95l.02 3.43c-.15 7.9-.15 7.9-3.12 11.82A33 33 0 0 1 282 178v2c-1.64 1.5-1.64 1.5-3.81 3.12l-2.15 1.64C274 186 274 186 271 186q-.15-13.65-.2-27.3l-.1-12.69q-.07-6.12-.08-12.25 0-2.32-.04-4.66c-.13-9.7.27-17.47 6.17-25.48 5.86-4.23 11.87-5.07 18.88-4.98"/><path fill="#a9212c" d="M493 70q.1 13.88.16 27.75.01 6.45.07 12.88.05 6.23.05 12.45l.04 4.74c.17 17.56.17 17.56-5.44 25-8.34 6.33-18.02 5.65-27.98 5.57q-3.8-.02-7.57.02l-4.87-.01-2.26.02c-7.3-.1-13.2-2.53-18.57-7.56-5.22-5.96-5.1-14.36-5-21.86l-.04-2.83c.04-8.78 1.8-15.8 7.42-22.66 7.95-6.03 17.55-4.86 26.99-4.7l4.66.04q5.67.06 11.34.15l-1 17-5.1.15-6.65.22-3.37.1-3.24.12-2.98.1c-2.7.32-4.38.85-6.66 2.31-1.47 2.94-1.17 5.6-1.19 8.88l-.04 3.74C442 135 442 135 444 139h28c1.5-3.01 1.12-6.11 1.1-9.41v-2.22l-.05-11.74L473 104h2v-6h-2c-.78-11.87-.78-11.87 1.94-15.81L478 80q2.33-2.08 4.63-4.19C489.13 70 489.13 70 493 70m-7.87 63.95-2.13.3-2.12.27C479 135 479 135 477 137l-1 2.56c-1 2.44-1 2.44-3 3.44-4.25.26-8.5.27-12.75.3q-3.17.03-6.33.1l-4.04.03-3.7.04c-3.78-.56-4.9-1.46-7.18-4.47l-1-3-9-1c-2.34 3.5-2.41 4.87-2 9 1.8 4.72 4.7 6.18 9.06 8.2 4.22 1.74 7.9 1.98 12.39 2l2.22.02 4.64.02q3.52.02 7.05.07l4.53.02 2.1.04c6.68-.03 11.97-1.55 16.95-6 2.46-4.02 3.43-7.63 3.06-12.37-2-2-2-2-3.87-2.05"/><path fill="#a3373e" d="M525.93 98.66q1.25 0 2.54-.02l5.28-.01q4.02-.01 8.03-.08l5.15-.01 2.4-.04c5.6.04 10.02 1.28 14.67 4.5 5.09 6.4 5.75 12.06 5 20-1 3.82-2.42 6.87-5.7 9.2-5.11 2.63-9.2 3.36-14.92 3.23l-2.38-.01q-2.47-.01-4.93-.06a2417.96 2417.96 0 0 1-12.38-.12l-2.3-.02c-5.27-.1-5.27-.1-6.39-1.22q-.14-3-.12-6l-.01-3.31C520 122 520 122 521 121q3.11-.23 6.22-.32l3.82-.12 8.06-.25 9.9-.31 1-4a3656 3656 0 0 0-17.78-.09h-3.8l-3.5-.02C522 116 522 116 519 117l-.09 11.98v2.57l-.02 2.37C519 136 519 136 520 139c2.33 1.16 3.76 1.15 6.36 1.2l2.73.07 2.95.05 3.02.06 16.04.31 15.9.31c-1.15 6.7-2.81 12.36-8 17-6.83 2.14-14.4 1.25-21.44.94l-5.91-.09-5.7-.14c-.45 0-.45 0-2.67-.06-6.44-.3-12.34-1.3-17.52-5.45l-1.63-1.95-1.68-1.92c-4-6.43-3.82-13.3-3.82-20.64l-.08-2.98c-.03-7.5 1.06-14.81 6.14-20.66 6.08-5.82 13.2-6.36 21.24-6.39M504 136c-1.35 4.06-.5 6.03 1 10 3.51 4.55 7.55 6.53 13 8 3.12.36 6.18.35 9.31.3l2.6-.02q4.05-.03 8.09-.1l5.53-.03L557 154l4-9-3.6-.08-19-.42-8.26-.18-2.59-.05-2.42-.06-2.13-.05c-2.1-.17-3.98-.6-6-1.16l-.75-3.87c-1-3.88-1-3.88-2.94-5.82-3.7-.5-6.1.93-9.31 2.69"/><path fill="#610008" d="M260 119c3.18 2.12 3.77 3.08 4.64 6.69 1.36 8.84 1.25 17.6-3.64 25.31-6.3 6.05-12.5 6.9-20.94 6.88l-3.53.06q-5.08.06-10.15.06l-7.79.02q-18.3.07-36.59-.02l-1-4 2 1c2.14-1.89 3.81-3.65 5.14-6.18 3.4-6.32 3.4-6.32 7.3-7.65 3.01-.3 5.92-.31 8.94-.23l3.31-.02q5.22-.01 10.44.08h10.45a624 624 0 0 1 9.47.06l2.61.04c2.26-.1 4.18-.47 6.34-1.1q-.46-2.72-.94-5.44l-.52-3.06C245 129 245 129 244 128q-4.28-.18-8.57-.21l-5.35-.09-8.44-.1q-4.08-.05-8.14-.12l-2.52-.01A35 35 0 0 1 196 124l-1-2h65z"/><path fill="#bf313e" d="m596.03 98.89 4.9.01h2.6l13.8.05L631 99c-2.2 13.25-2.2 13.25-7 17-7.34 1.58-15 1.22-22.46.97C599 117 599 117 596 118c-1.64 3.27-1.24 6.9-1.32 10.5l-.37 16.09L594 158h-19q-.11-9-.16-17.99l-.07-6.11q-.04-4.4-.06-8.81l-.05-2.74c0-5.58.78-9.38 3.34-14.35l1-2h2v-2c5.13-3.06 8.96-5.13 15.03-5.11"/><path fill="#ac353f" d="M348 99h20l1 35c2.63 1.31 4.73 1.21 7.66 1.32l3.07.11 3.9.13L396 136V99h20q.1 11.09.16 22.17.01 5.14.07 10.3.05 5.92.06 11.87l.05 3.68c0 8.26-.5 16.57-5.59 23.42-9.83 9.16-25.79 6.72-38.35 6.69h-14.84c-5.33-.01-5.33-.01-7.56-1.13 2.33-5.81 5.2-11.4 8-17l36-1 2-5h-31v-1h32l1 8c-4.73 2.77-8.13 3.36-13.59 3.3l-2.12-.02q-3.33-.03-6.67-.1l-4.54-.03q-5.55-.06-11.08-.15l-.87 2.19L356 173q9.18-.03 18.36-.15 3.12-.04 6.24-.05 4.5-.01 9-.1l2.79.02c6.32-.14 10.74-1.57 15.61-5.72l1-2h3c.79-5.53 1.14-10.86 1.1-16.44v-2.32l-.05-12.19L413 122h-14v-18l1 2h12v-3h-13v36l-14.75.25-4.64.11-3.66.03-3.74.06c-3.21-.45-3.21-.45-5.62-2.27-3.17-4.35-1.8-10.04-1.59-15.18h-15l-1-5h-1z"/><path fill="#959ba1" d="M105.64 84.32c5.04 3.59 9.97 7.44 13.36 12.68v3h2c3.3 6.17 6 11.85 6 19h-2l-2-5h-2l1 6h-3l-1-3h-3l-.7-2.2c-1.99-5.89-3.7-10.53-8.3-14.8-2.44-.62-2.44-.62-5-1l-2.62-1.87a36.3 36.3 0 0 0-27.02-4.56C66.62 93.91 62.37 95.71 58 98l-2.06.38c-3.05.98-4.74 3.36-6.94 5.62h-2v-3l-2 3 2 1c-.7 3.67-2.28 6.7-4 10h-2l2-7-5-5c-.12 2.88-.12 2.88 0 6l2 2c.13 2.63.13 2.63 0 5h-5v-3h-2c.6-4.85 1.98-8.6 4-13h2l1-4h2l.75-1.75C46.91 86.78 55.3 82.1 63 79q1.98-.55 4-1l1.78-.55a49.7 49.7 0 0 1 36.86 6.87M47 92l-2 2c.38 2.13.38 2.13 1 4l4-5zm-5 5 1 2Zm75 15 1 3Z"/><path fill="#e36c79" d="m525.84 98.57 2.54-.02h5.3q4.02 0 8.05-.05h5.17l2.4-.03c6.96.09 12.2 2.16 17.26 6.97 2.23 5.52 1.23 10.76.44 16.56l-3.46.18-6.76.38c-5.67.33-5.67.33-6.78 1.44q-3 .12-6 .1l-3.69-.01-3.87-.03-3.9-.01L523 124v-2l29-1-2-7-16.96-.08-6.18-.02-3.77-.01C520 114 520 114 517 115l-1 7h-14c-.3-5.84.04-9.77 3-15 6.45-6.3 12.07-8.47 20.84-8.43"/><path fill="#b90b1c" d="M276 104h2l-.62 1.65A61 61 0 0 0 274 122h14l1-4v54c-4 2-4 2-6.06 2.81-2.62 1.6-3.46 3.53-4.94 6.19-2 2.81-2 2.81-4 5h-3q-.14-13.65-.2-27.3l-.1-12.69q-.07-6.12-.08-12.25 0-2.32-.04-4.66c-.12-8.44-.06-15.7 4.42-23.1z"/><path fill="#f4f1f2" d="m100 100 1 3-2 3c.3 2.78.83 5.37 1.56 8.06A27 27 0 0 1 101 121q-2.16.12-4.31.19l-2.43.1c-2.74-.35-3.55-1.18-5.26-3.29l-1.87 2C85 122 85 122 83 122v2h-2v-2l-2.92-.08-3.83-.17-3.8-.14C66.6 120.93 65.4 120 63 117l-1 2h-3l.04-2.16c.05-5.4-.1-10.52-1.04-15.84 12.17-10.24 29.18-10.33 42-1"/><path fill="#a12935" d="M493 70q.1 13.88.16 27.75.01 6.45.07 12.88.05 6.23.05 12.45l.04 4.74c.17 17.56.17 17.56-5.44 25-8.17 6.2-17.63 5.55-27.44 5.37l-4.22-.04L446 158v-1c5.69-.98 11.17-1.12 16.94-1.06l9.06.06v-2l2.01-.45c8.13-2.06 8.13-2.06 11.05-5.18 2.35-4.1 3.08-7.66 2.94-12.37l-1-1c-2.7.18-5.33.62-8 1l-2 5c-2-2-2-2-2.23-4.61l.03-3.27.02-3.54.06-3.7.02-3.74.1-9.14h1v9h15l-1-23-13 1v-2h-4c-.78-11.87-.78-11.87 1.94-15.81L478 80q2.33-2.08 4.63-4.19C489.13 70 489.13 70 493 70"/><path fill="#d41527" d="M260 119c3.18 2.12 3.77 3.08 4.64 6.69 1.36 8.84 1.25 17.6-3.64 25.31-6.3 6.05-12.5 6.9-20.94 6.88l-3.53.06q-5.08.06-10.15.06l-7.79.02q-18.3.07-36.59-.02l-1-4 2 1 4-3v2q11.93-.06 23.84-.18 5.54-.06 11.07-.1 5.34 0 10.7-.09 3-.02 6.03-.02c7.22-.12 12.29-.58 18.36-4.61 2.8-4.15 3.15-6.9 4-12l-14 2-1.46-7.71C245 129 245 129 244 128q-4.28-.18-8.57-.21l-5.35-.09-8.44-.1q-4.08-.05-8.14-.12l-2.52-.01A35 35 0 0 1 196 124l-1-2h65z"/><path fill="#690009" d="m324 119 1 3h14c2.38 18.76 2.38 18.76-2 26-3.53 3.76-6.87 6.92-12.16 7.11l-4.04-.01h-2.14l-11.38-.05L296 155v-11l4.9-.15 6.35-.22 3.22-.1 3.1-.12 2.86-.1C319 143 319 143 323 141z"/><path fill="#fbb7bf" d="M205.65 109.48c4.6 1.8 8.74 1.94 13.64 1.93l2.6.03q5.46.06 10.93.07l8.03.08h2.46c6.03.07 10.68 1.17 15.63 4.85C260 118 260 118 260 122q-12.8.17-25.6.26-5.96.04-11.9.12-5.74.07-11.48.1-2.2 0-4.37.05-3.08.04-6.14.04l-3.52.03c-2.99-.6-2.99-.6-5.36-3-2.3-3.68-2.34-6.3-2.63-10.6q3-.38 6-.69l3.38-.38c3.62.07 3.62.07 7.27 1.55"/><path fill="#af0009" d="m98 132 5 1c.13 6.63.13 6.63-1 10 .44 2.19.44 2.19 1 4-4 0-4 0-6-1l-.19 3.25C96 153 96 153 93.94 155.31a28.8 28.8 0 0 1-21.3 3.12c-7.74-2.4-7.74-2.4-10.64-5.43-.75-2.19-.75-2.19-1-4h-4l.19-2.44c-.24-4.54-1.61-8.33-3.19-12.56 1-1 1-1 3.31-1.37C60 133 60 133 62 135.25l2 2.75c3.11 3.39 5.47 4.28 9.94 4.53q2.82.01 5.62-.03l2.87.05c6.87-.04 6.87-.04 10.08-2.38q.74-1.06 1.49-2.17l2.25-3.25z"/><path fill="#954149" d="M157 61h2q.4 9.2.6 18.41.09 3.15.23 6.26c.77 17.38.77 17.38-3.19 22.19A45 45 0 0 1 148 112a127 127 0 0 0-4 3c-3.8 1.54-6.9 2.24-11 2l-2-7h-2l-1-6q3.68-2.5 7.38-5l2.11-1.45 2.03-1.36 1.88-1.27C143 94 143 94 145 94l.34-2.09c.76-3.34 1.9-6.34 3.16-9.52l.74-1.87 3.9-9.81zm-1 31-1 6h2v-6zm0 8-6 4.38-1.73 1.25A102 102 0 0 0 144 109v2c5.09-1.59 8.87-4.74 13-8z"/><path fill="#470005" d="M411 148q.16 3.56.25 7.13l.1 2.01c.1 5.17-.95 8-4.35 11.86-5.83 4.16-10.26 4.55-17.3 4.4l-2.94-.03q-4.6-.04-9.2-.12l-6.26-.05q-7.65-.08-15.3-.2c.56-3.95 1.4-6.92 4-10 3.2-.63 3.2-.63 7.12-.64l2.1-.03q3.33-.03 6.65-.02t6.64-.05q3-.03 6.03-.02c3.33-.23 5.54-.65 8.46-2.24 1.5-3.05 2.45-6.12 3.5-9.35 1.5-2.65 1.5-2.65 4.47-3.58C408 147 408 147 411 148"/><path fill="#9a374a" d="M42 119h2l.3 3.18c1.23 12.06 3.68 23.27 13.58 31.36C62.75 156.8 68.05 159 74 159v2c14.55-1.46 24.73-4.16 34.31-15.81 3.9-7.36 5.18-14.95 5.69-23.19l3-1v2h2c-.25 12.73-3.94 23.8-13 33-6.74 5.84-19.8 15-29 15v-2l-3.09-.8c-8.3-2.37-16.79-7.08-22.91-13.2v-2h-2c-6.06-7.32-9.82-17.4-9.3-26.9.37-2.58 1.07-4.8 2.3-7.1"/><path fill="#97282e" d="m516 101-1.6.7c-4.56 2.1-7.94 3.76-10.4 8.3-.91 4-1.46 7.92-2 12h15v15h-2v-2c-2.17-.95-3.56-1.14-5.82-.4q-2.62 1.16-5.18 2.4c1.3 7.97 1.3 7.97 3.63 11.38 6.22 4.26 12.35 5.07 19.68 5.13l2.6.06 8.09.12 5.53.1q6.74.13 13.47.21l.85-2.83c1.76-4.86 4.92-7.35 9.15-10.17-1.15 6.7-2.81 12.36-8 17-6.83 2.14-14.4 1.25-21.44.94l-5.91-.09-5.7-.14c-.45 0-.45 0-2.67-.06-6.44-.3-12.34-1.3-17.52-5.45l-1.63-1.95-1.68-1.92c-4-6.43-3.82-13.3-3.82-20.64l-.08-2.98c-.03-7.5.99-14.99 6.29-20.69 6.2-5.5 6.2-5.5 11.16-4.02"/><path fill="#c57178" d="M329 101c5.1 1.35 8.36 4.56 11 9 2.04 6.32 2.37 12.26 2.38 18.88l.07 2.81c.03 7.35-1.2 14.53-6.13 20.26-6.42 6.1-13.46 6.27-21.94 6.12L312 158v-2h-7v2h-4v-2h-3v2l-5-1v-16l4.86-.15 6.33-.22 3.2-.1 3.09-.12 2.84-.1A25 25 0 0 0 321 138q.13-4.69.19-9.37l.07-2.7.03-2.58.05-2.38L321 119c-3.37-2.25-4.53-2.25-8.47-2.23h-3.23l-3.36.04h-3.38c-8.28.05-8.28.05-10.56 1.19v1.98q-.04 10.2-.15 20.39-.04 3.8-.05 7.6-.01 5.48-.1 10.95l.02 3.43c-.15 7.9-.15 7.9-3.12 11.82A33 33 0 0 1 282 178v2q-2.45 2.07-5 4l-2-1 4-5 1.94-2.75c2.4-2.63 3.64-2.73 7.06-3.25l.02-2.11a6455 6455 0 0 1 .4-29.81q.07-5.82.17-11.63l.03-3.69.06-3.4.04-3C289 116 289 116 291 114c2.98-.23 2.98-.23 6.76-.2l2 .01q3.2.02 6.37.06 2.15.02 4.3.03 5.3.04 10.57.1v2l3 1q.2 5.9.31 11.81l.13 3.4.05 3.25.08 3c-.57 2.54-.57 2.54-2.76 4.37-3.03 1.26-5.06 1.52-8.33 1.46l-3.1-.03-3.2-.07-3.25-.04L296 144v11q6.68-.06 13.34-.2 2.26-.06 4.54-.07 3.27-.04 6.53-.12l3.97-.06c5.52-.84 8.57-3.19 11.93-7.55 3.6-6.4 2.7-12.66 2.44-19.81l-.08-3.53c-.47-13.18-.47-13.18-5.28-18.4l-1.58-1.14L329 102z"/><path fill="#aa636d" d="M48 32h2l-.04 3.4q-.03 6.24.03 12.5 0 2.7-.02 5.41c-.16 15.1-.16 15.1 2.88 19.17 2 1.45 3.94 2.45 6.15 3.52v2l-2.69 1.25C53.2 80.9 50.74 82.79 48 85h-2c-2.36-2.65-3.87-4.62-5-8l-3-2v-3h-3v4h-3c-1.5-4.7-.37-7.32 1.6-11.73l.86-1.94q1.35-3.04 2.73-6.08l1.79-4.04q1.72-3.87 3.46-7.74l3.99-8.92z"/><path fill="#f8f8f8" d="M105.83 84.44A42 42 0 0 1 113 91l-7-1 6 7-1 2-1.46-1.28-1.91-1.66-1.9-1.65C104 93 104 93 102 92l1 3c-2.45-.95-4.86-1.93-7.23-3.06l-2.4-1.13-2.28-1.1C89 89 89 89 86 90q-3.5.14-7 .13h-3.75C72 90 72 90 69 89q-3 1.47-6 3h-4v-2l-3.37 2.06c-1.9 1.16-1.9 1.16-3.63 1.94l-2-1 5.25-3.5 2.95-1.97C61 86 61 86 65 86l-1-1q-2.55.15-5.06.44l-2.79.3L54 86c1-3 1-3 2.7-4.13l2.11-1 2.08-1A36 36 0 0 1 67 78l1.78-.55a50 50 0 0 1 37.05 6.99"/><path fill="#6e6e7a" d="M108 32h3l1.18 2.91q6.08 14.9 12.62 29.6l1.26 2.86 1.13 2.56C128 72 128 72 128 74l-7-1-.87 1.75L117 81h-2v3l-4 1v-2l-2.06-.81A467 467 0 0 1 99 78l1-3h2v-2l2.96-1.6C108 69 108 69 108.68 65.16q0-2.33-.1-4.63l-.02-2.48q-.05-3.9-.19-7.79l-.08-5.3q-.1-6.47-.29-12.95"/><path fill="#d22e3f" d="M348 99h20l1 35c2.62 1.3 4.63 1.16 7.56 1.21l3.36.09q3.5.08 7.03.13l3.36.1 3.09.05c2.91.47 3.81 1.13 5.6 3.42q-6.3.15-12.6.22l-4.28.08q-3.09.06-6.17.1l-3.74.05c-3.21-.45-3.21-.45-5.62-2.27-3.17-4.35-1.8-10.04-1.59-15.18h-15l-1-5h-1z"/><path fill="#944b4e" d="M0 61c3.09 2.85 4 5.37 5.31 9.4l1.33 3.83q1.02 3 2 6.02c2.77 8.63 5.5 14.11 13.8 18.5L25 100q1.87 1.18 3.69 2.44L31 104l-2 8h-2v-6c-2.61 4.35-3 9-3 14l-3-1v-8h-2l-1 3c-4.5.44-6.55-.7-10.12-3.37l-2.58-1.9L3 107l-3-2c-.36-1.91-.36-1.91-.34-4.27v-2.67l.05-2.88.01-2.95q.03-4.68.1-9.36l.03-6.33zm2 12v10l4 1a40 40 0 0 0-3-11zm5 12c-1.03 3.1-.97 4.53-.56 7.69l.3 2.45L7 97l3-1v2l-2 1 6 3v-3l2-1-1.9-.23C12 97 12 97 11.02 95.04l-.64-2.42A23 23 0 0 0 7 85m-5 2v12h2V88zm0 14c1.32 3.95 3.05 4.55 6.56 6.69l3.07 1.88L14 111c-1.7-3.74-3.57-5.66-7-8H4v-2z"/><path fill="#b23a45" d="M259 87h2a139 139 0 0 1-5 13h-46v2l-3 1-1 7-1.58-.5c-3.1-.64-6-.6-9.17-.56l-3.55.02-2.7.04-1 4q-.12-3.37-.19-6.75l-.1-3.8C188 99 188 99 188.97 96.6c3.24-2.54 6.75-2.28 10.72-2.34l2.78-.09q5.26-.12 10.53-.16l2.38-.02q9.44-.09 18.87-.1l2.76-.01h10.22c5.54.01 5.54.01 7.77 1.13l.88-2.31C257 90 257 90 259 87"/><path fill="#d32435" d="m475 98 3 1a140 140 0 0 0 6.19.06l3.29-.02L490 99c.84 2.92 1.12 5.5 1.1 8.55l-.01 2.56-.03 2.64-.01 2.7L491 122h-15l.1 4.3.09 5.58.07 2.83.03 2.72.05 2.5L476 142c-3.64 2.43-5.41 2.26-9.75 2.27h-6.13q-3.17-.01-6.34 0h-4.03l-3.7-.01C443 144 443 144 440 142l1-4 3 1q3.21.11 6.42.1l3.8-.01 3.97-.03 4-.01L472 139c1.5-3.01 1.12-6.11 1.1-9.41v-2.22l-.05-11.74L473 104h2z"/><path fill="#ec818e" d="m289.25 100.55 2.6-.07 2.79-.02 2.89-.04 6.06-.03q4.6-.03 9.21-.15l5.9-.03 2.76-.08c6.3.07 9.47 1.71 14 6.08 4.08 4.75 3.74 9.87 3.54 15.79h-14l-2-5-2-1v-2l-30 1-3 7h-14c-.29-9.57-.29-9.57 2-14l2 1-1 2 58-1c-6.32-6.32-10.16-7.21-18.94-7.25l-2.07.02-6.79.02q-3.49.02-6.98.02l-4.48.02h-2.08c-3.98.04-7.75.4-11.66 1.17 2.31-2.76 3.67-3.38 7.25-3.45"/><path fill="#500004" d="M276 138h11q.45 6.78.66 13.55.09 2.3.25 4.6c.82 12.37.82 12.37-2.11 16.57-3.19 3.38-6.81 5.93-10.8 8.28h-1a3337 3337 0 0 1-.15-21.39q-.04-3.9-.05-7.8l-.03-2.45v-2.3l-.01-2.02C274 143 274 143 276 138"/><path fill="#8a0510" d="M365 102h1v34l-9 1-4 1c1.79 4.03 3.16 6.72 7 9 3.73 1.24 7.27 1.23 11.17 1.32l2.4.06 12.78.31L399 149v9l-2-1v-5l-2.9.14q-5.38.25-10.76.45l-4.64.2c-16.1.78-16.1.78-22.7-2.79-5.45-5.21-8.08-11.37-8.36-18.83q0-2.49.05-4.98l-.01-2.56c.05-6.23.05-6.23 2.32-9.63v8h15z"/><path fill="#da9ba4" d="M446.4 98.9h2.13l11.29.05L471 99v2c-2.74 1.37-4.98 1.16-8.04 1.21l-3.7.09q-3.85.08-7.7.13c-15.38.39-15.38.39-20.56 5.57h38v6l-2.34.03q-5.24.09-10.47.22l-3.68.04-3.53.1-3.25.06c-2.73.55-2.73.55-4.54 2.4C440 119 440 119 439 122h-14c-.42-8.17 1.6-12.75 7-19l1.5-1.75c3.63-3.02 8.4-2.37 12.9-2.35"/><path fill="#d2c2cb" d="m65 96 2 1-.81 1.69L66 101a63 63 0 0 0 5 5v2l2.63.08c11.5.56 11.5.56 16.37 4.92l1.75 1.44c1.62 2.02 2.4 4.13 3.25 6.56-3 0-3 0-4.69-1.5L89 118l-1.87 2C85 122 85 122 83 122v2h-2v-2l-2.92-.08-3.83-.17-3.8-.14C66.6 120.93 65.4 120 63 117l-1 2h-3l.04-2.16c.05-5.4-.1-10.52-1.04-15.84z"/><path fill="#e36b78" d="M597.16 99.9h2.75l14.61.05L629 100v2l-3.07.04q-5.7.1-11.39.22l-4.9.09c-17.4.25-17.4.25-24.64 3.65l-2 3h41l-2 5-2.34.04q-5.24.13-10.47.27l-3.68.07-3.53.1-3.25.09c-2.73.43-2.73.43-4.54 1.71C593 118 593 118 592 122h-15c.36-6.64.69-10.7 5-16l2.13-2.81c3.64-4.25 7.81-3.32 13.03-3.29"/><path fill="#af000e" d="M554.38 121.9q2.1 0 4.18.04l2.16.01 5.28.05c.27 4.66.27 4.66-2.13 7.69-5.16 4.16-10.22 4.6-16.67 4.5H545q-3.44-.02-6.88-.06l-4.68-.03q-5.73-.04-11.44-.1v-11l2.55.02 13.41.06 9.36.03c3.39-.14 3.42-1.1 7.06-1.2"/><path fill="#6a7784" d="m544.06 164.5 3.66-.03c3.28.53 3.28.53 5.69 2.19 2.02 2.97 2.1 4.77 2.03 8.34v3.13c-.5 3.22-1.12 4.6-3.44 6.87-4.91 1.9-10.97 1.6-15.94.13C534 184 534 184 532 182c-.37-2.9-.37-2.9-.44-6.37l-.12-3.47c.56-3.16.56-3.16 2.65-5.54 3.56-1.98 5.92-2.15 9.97-2.12"/><path fill="#9f3a43" d="M131 128c4.6 1.58 8.32 4.04 12.31 6.75l5.92 4.03q2.25 1.56 4.53 3.07l2.18 1.53 1.84 1.27C159 146 159 146 159 150l-4 1q.14 2.91.31 5.81l.18 3.27c.55 3.17 1.14 3.9 3.51 5.92v2c-3.26-.56-5.04-1.29-7-4-.69-3.19-.69-3.19-1-6h-2l-.31-1.94L148 154l-3-1v-2l-3 1v2c-4.77-1.77-8.78-4.19-13-7v-2l5 1q-.26-.88-.5-1.8c-2.03-7.84-2.03-7.84.5-12.2h-3zm7 8 1 2 1-2zm7 5c2.53 2.8 4.2 4.46 8 5-2.53-2.8-4.2-4.46-8-5m8 5v2l4 2-1-3zm-16 0-2 2 5 3c-.37-1.94-.37-1.94-1-4z"/><path fill="#76010b" d="M578 123h13v32h-13z"/><path fill="#c9cccf" d="M495 165h6l3 10 5-10h6l4 10 3-10h6c-.62 6.85-2.04 16.04-7 21-3.12-.37-3.12-.37-6-1l-3-9c-2 3-2 3-3.37 6.13C507 185 507 185 505 186c-2 0-2 0-5-2a85 85 0 0 1-2.69-7.37l-.68-2.04A28 28 0 0 1 495 165"/><path fill="#920711" d="M261 130c2.36 4.72 1.59 10.9 1 16-2.15 5.13-4.8 8.83-10 11-2.36.32-2.36.32-5.04.41l-3.14.12-3.44.1-3.6.11c-18.26.5-36.52.34-54.78.26l-1-4 2 1 4-3v2q11.93-.06 23.84-.18 5.54-.06 11.07-.1 5.34 0 10.7-.09 3-.02 6.03-.02c7.22-.12 12.29-.58 18.36-4.61 2.8-4.15 3.15-6.9 4-12l-14 2 1-7c4.5-2.25 8.08-2.17 13-2"/><path fill="#74040e" d="M261 137c-.2 4.4-.43 8-2.62 11.88-7 6.25-14.72 5.52-23.63 5.41l-4.14-.01q-5.4-.02-10.83-.07l-11.08-.06q-10.86-.06-21.7-.15c.38-2.44.38-2.44 1-5l2-1v4a6663 6663 0 0 0 30.97.15q5.65.04 11.32.05l3.53.03c11.09 0 11.09 0 16.18-2.23 1.18-2.08 1.18-2.08 2-4l-34.06-.08-16.34-.03h-3.64l-3.2-.01c-2.43.1-4.45.42-6.76 1.12.82-2.46.82-2.46 3-5 3.62-.77 7.23-.62 10.91-.57l3.29-.01q5.21-.02 10.43.02 5.17.02 10.36 0 3.23-.01 6.44.04c6-.02 10.4-.8 15.73-3.58 3.6-1.76 6.95-1.15 10.84-.9"/><path fill="#ca6773" d="m25 128 3 1v8h-2l-.18 1.93-.26 2.5-.24 2.5C25 146 25 146 24 147q-2.5.06-5 0v4l-3.37.81C12 153 12 153 10 156H7l.25 3.75c0 3.23-.09 4.03-2.06 6.75C3 168 3 168 0 168c1.88-3.87 1.88-3.87 3-5q.34-3.03.56-6.06l.26-3.35L4 151l-3-1 4-4-5 2v-3a90 90 0 0 1 6.88-4.75l4.13-2.66 2.06-1.32c3.43-2.25 6.7-4.72 9.98-7.19zm-5 7-1 5 2-1zm-12 8-1 2 3-1zm-2 10 1 2Z"/><path fill="#989ea4" d="m569.38 164.75 2.36-.06c5.82-.04 5.82-.04 7.99 1.7 1.68 2.14 1.64 3.47 1.58 6.17v2.38C581 177 581 177 579 179l1.5 1.81C582 183 582 183 582 186c-2.75-.19-2.75-.19-6-1l-4-5c-3.25-.81-3.25-.81-6-1v6h-5c-1-4.13-1.13-8.01-1.12-12.25l-.01-3.77c.26-5.88 4.73-4.2 9.5-4.23"/><path fill="#b91525" d="m584 102 2 1-2.81 2.75c-4.2 4.82-4.94 10.09-6.19 16.25h15l1-6c3.15-2.1 3.86-2.24 7.45-2.2l2.57.02 2.67.06 2.7.02 6.61.1v1h-18c-2.25 5.63-2.25 5.63-2.32 9.06l-.06 2.3-.03 2.44-.06 2.54q-.08 3.98-.15 7.97l-.12 5.43q-.14 6.63-.26 13.26h-19q-.11-9-.16-17.99l-.07-6.11q-.04-4.4-.06-8.81l-.05-2.74c0-5.58.78-9.38 3.34-14.35l1-2h2v-2zm-6 21v32h13v-32z"/><path fill="#868f99" d="m458.25 164.75 2.26.05q2.75.08 5.49.2v6h-14v2l1.8-.22c4.08-.48 8.07-.91 12.2-.78v6h-14v2h14v5c-1 1-1 1-3.04 1.13-10.15-.03-10.15-.03-14.96-1.13-2.35-3.53-2.33-5.25-2.37-9.44l-.1-3.43c.47-3.13.47-3.13 1.98-5.52 3.5-2.26 6.72-2.04 10.74-1.86"/><path fill="#adb1b6" d="M422.29 164.56c3.71.44 3.71.44 6.14 3.06l2 3.38 2.07 3.38L434 177l1-12h5c2.78 5.56.97 14.05 0 20-1 1-1 1-4.13 1.19-3-.43-3.84-1.15-5.89-3.49-1.75-2.52-3.4-5.06-4.98-7.7l-.18 1.9-.26 2.47-.24 2.47C424 184 424 184 423 186h-5q-.04-4.96-.06-9.94l-.03-2.86v-2.73l-.02-2.52c.2-3.34.97-2.93 4.4-3.39"/><path fill="#8e949a" d="M106 89c1.81.25 1.81.25 4 1l2.5.75c3.13 1.57 4.58 3.34 6.5 6.25v3h2c3.3 6.17 6 11.85 6 19h-2l-2-5h-2l1 6h-3l-1-3h-3l-.56-2.05c-2.22-7.13-5.29-11.54-10.61-16.76C102 96 102 96 102 92a29 29 0 0 1 9 5l-7-6zm11 23 1 3Z"/><path fill="#cc0315" d="m92 145 2 4-1.56 1.25L91 152c.41 2.1.41 2.1 1 4-8.88 3.45-15.1 3.86-24.21 1.05C66 156 66 156 65.25 153.89L65 152l2-1-1-2 3-1 1-2 7.38.06 2.11.03c4.45.02 8.09-1.2 12.51-1.09"/><path fill="#ca0314" d="M491 112h1q.17 6.72.25 13.44l.1 3.82c.15 14.17.15 14.17-4.35 19.74-2.14.73-2.14.73-4 1l1.44-1.94c2-3.92 2.52-7.67 2.56-12.06l-1-1c-2.7.18-5.33.62-8 1l-2 5c-2-2-2-2-2.23-4.61l.03-3.27.02-3.54.06-3.7.02-3.74.1-9.14h1v9h15z"/><path fill="#d13a49" d="m526.31 101.7 2.34-.01h4.87q3.7-.01 7.41-.05h4.76l2.2-.03c5.07.04 8.63.99 13.11 3.39l2 3h-54c2-4 2-4 5.1-5.23a61 61 0 0 1 12.21-1.07"/><path fill="#530005" d="M411 148q.16 3.56.25 7.13l.1 2.01c.1 5.17-.95 8-4.35 11.86-5.83 4.16-10.26 4.55-17.3 4.4l-2.94-.03q-4.6-.04-9.2-.12l-6.26-.05q-7.65-.08-15.3-.2c.75-4.75.75-4.75 3-7l1 5 43-1 1-3h3v-9c-3.77.51-5.45 1.2-8 4h-2v3h-4l-1-3 2.35-.62c4.34-2.26 4.71-6.27 6.15-10.73 1.5-2.65 1.5-2.65 4.47-3.58C408 147 408 147 411 148"/><path fill="#b70a18" d="m398 102 14 1v3h-12l-1 16h14v-12h1a4784 4784 0 0 1 .15 26.32q.04 4.8.05 9.62l.03 2.99c0 5.71-.6 10.59-2.23 16.07h-2l1-3.71c1.31-5.96 1.22-11.78 1.13-17.85l-.03-3.35-.1-8.09-11 1-1 6c-2.4-3.71-2.26-7.34-2.2-11.6l.01-2.21.06-6.94.03-4.71q.03-5.78.1-11.54"/><path fill="#adb2b7" d="M587 165h6v8h4l.88-1.75L601 165h7c-1 2.74-1.82 4.79-3.75 7l-1.25 2c.7 2.87 1.5 4.51 3.63 6.56C608 182 608 182 608 186c-2.69-.12-2.69-.12-6-1a159 159 0 0 1-5-6c-2.31-.87-2.31-.87-4-1v7l-6 1z"/><path fill="#c25e69" d="M44 166c3.77.66 6.53 2.36 9.75 4.38l2.98 1.83L59 174v3l-6-2-2 3c-4.44 3-4.44 3-7 3 .88 6.88.88 6.88 2 8q.34 2.77.56 5.56l.26 3.07L47 200h-4l-1-10-5-1c.2-10.2.2-10.2 3.5-13.5L43 174l1-3c-8.74 6.4-8.74 6.4-9.37 10.31.3 2.19.3 2.19 1.37 5.69-3-1-3-1-4.25-2.75-.98-2.93-.7-4.3.25-7.25 2.21-2.46 2.21-2.46 4.94-4.81l2.71-2.4C42 168 42 168 44 168zm2 9-1 2 3-1zm-4 3v3l2-3z"/><path fill="#b0323e" d="M329 101c5.1 1.35 8.36 4.56 11 9 2.04 6.32 2.37 12.26 2.38 18.88l.07 2.81c.03 7.35-1.2 14.53-6.13 20.26-6.42 6.1-13.46 6.27-21.94 6.12L312 158v-2h-7v2h-4v-2h-3v2l-5-1v-16l2 1q2.72.22 5.45.32l3.26.12 3.42.12 3.44.13 8.43.31v1h-23v11q6.68-.06 13.34-.2 2.26-.06 4.54-.07 3.27-.04 6.53-.12l3.97-.06c5.52-.84 8.57-3.19 11.93-7.55 3.6-6.4 2.7-12.66 2.44-19.81l-.08-3.53c-.47-13.18-.47-13.18-5.28-18.4l-1.58-1.14L329 102z"/><path fill="#7b000c" d="m403.5 131.9 3.06.04 5.44.06c.9 5.36 1.12 10.5 1.06 15.94l-.01 2.36-.05 5.7h-1v-14h-15v-2l-3 2c-2.46.24-2.46.24-5.38.23h-3.23l-3.39-.04h-3.3c-6.94-.04-13.79-.44-20.7-1.19.37 1.94.37 1.94 1 4l2 1-1 2c-5.78-4.3-5.78-4.3-6.88-7.81L353 138a15 15 0 0 1 8.56-2.25l2.32-.02C366 136 366 136 369 138c3.19.32 3.19.32 7.07.41l2.08.06 6.54.16 4.44.11q5.44.15 10.87.26l-.06-2.94c.08-4.02.08-4.02 3.56-4.16"/><path fill="#d8c7ca" d="m217.44 82.41 4.13.03q5.4.04 10.79.15 5.52.08 11.04.12 10.8.1 21.6.29v3c-2.64 1.32-4.63 1.13-7.6 1.14l-3.54.02-3.86.02-6 .05q-7.4.06-14.8.1-4.14 0-8.28.05-3.9.04-7.8.04c-7.3.1-12.76.96-19.12 4.58l-2 1c4.59-10.76 15.21-10.83 25.44-10.59"/><path fill="#dc7681" d="M398 100h16l-1 22h-14v-18l1 2h12v-3h-13z"/><path fill="#b8656d" d="M0 61c3.25 3.25 3.91 5.09 5.31 9.4l1.33 3.83q1.02 3 2 6.02c2.77 8.63 5.5 14.11 13.8 18.5L25 100q1.87 1.18 3.69 2.44L31 104l-2 8h-2l.19-2.87L27 106l-3-2-1 3c-1.94-.81-1.94-.81-4-2l-1-3-2 1-2-1v-4a68 68 0 0 0-3-3c-1.52-2.93-2.72-5.95-4-9L5 97H4V86l-4-2zm2 12v10l4 1a40 40 0 0 0-3-11z"/><path fill="#a31f2d" d="m232.13 93.94 6.1.01L253 94l1 4-1.8.02q-9.27.1-18.54.24l-6.93.09q-4.96.05-9.94.14l-3.13.02-2.91.06-2.57.03c-2.66.49-3.36 1.48-5.18 3.4-3.36.3-3.36.3-7.19.19l-3.85-.08L189 102l2-7c13.72-.95 27.37-1.12 41.13-1.06"/><path fill="#b9565f" d="M112 166c5.93 2.4 11.86 7.18 16 12v2c-4 0-4 0-6.44-2.25L119 175q-2.47-2.04-5-4c1 3 1 3 3.5 4.75 3.26 2.94 3.18 4.97 3.5 9.25l1 2-1 2q-1.98.55-4 1c-1.58 1.58-1.35 3.38-1.56 5.56l-.26 2.5L115 200h-2l-.1-8.5c.1-2.5.1-2.5 1.1-3.5.63-2.62.63-2.62 0-6a63 63 0 0 0-9-7l-1 1 2 1v3c-3.65-1.25-4.78-1.67-7-5l8.4-6.15C110 167 110 167 112 166m1 11 1 2 2-1zm4 3v6h1v-6z"/><path fill="#a30210" d="M272 118h1l1 16 2-2c2.6-.2 2.6-.2 5.63-.12l3.03.05 2.34.07c1.64 3.27 1.24 6.9 1.32 10.5l.37 16.09L289 172l-4 2 1-3q.23-3.75.32-7.51l.06-2.2.31-11.7L287 138h-11a65 65 0 0 0-1.1 13.58v2.47l.05 13.04L275 180l2-2 3 1c-2.31 2.5-2.31 2.5-5 5h-3z"/><path fill="#ce0011" d="m500 119 1 3h16v15h-2v-2c-2.17-.95-3.56-1.14-5.82-.4q-2.62 1.16-5.18 2.4l2 12c-4.03-2.69-4.27-4.93-5.44-9.5-1.09-6.79-.78-13.64-.56-20.5"/><path fill="#c1c1c5" d="M48 32h2l-.04 3.4q-.03 6.24.03 12.5 0 2.7-.02 5.41c-.16 15.1-.16 15.1 2.88 19.17 2 1.45 3.94 2.45 6.15 3.52v2c-3.8-1.61-7.4-3.75-10-7-.68-2.67-.78-5.23-1-8-1.56-2.5-1.56-2.5-3-4l-3 2c-2.19-.37-2.19-.37-4-1 .55-6.29 2.6-11.57 5-17.37l1.12-2.77c2.73-6.7 2.73-6.7 3.88-7.86"/><path fill="#ab0a17" d="m324 119 1 3h14c2.37 18.67 2.37 18.67-2 26-3.1 3.6-5.81 5.7-10.44 6.88L324 155c2-2 2-2 4.88-3.31 4.36-2.36 6.56-5 8.12-9.69q.06-3.5 0-7l-3.69-.25-2.07-.14C329 135 329 135 324 139z"/><path fill="#d83c4c" d="m447.71 101.8 3.77.02 3.9.05 3.96.03 9.66.1q.06 3 0 6c-1 1-1 1-4.6 1.11l-4.81-.01h-2.55l-13.58-.05L430 109c5.36-6 9.8-7.27 17.71-7.2"/><path fill="#7b020b" d="M337 134c1 1 1 1 1.25 4.19-.37 5.72-2 8.61-6.12 12.56-5 3.6-8.6 4.5-14.74 4.45l-3.78-.02-3.92-.06-3.98-.02-9.71-.1v-11h1v9h28l1-3 6-1 1-5-14 1v-2l1.81-.69c2.76-1.65 3.6-3.55 5.19-6.31 4.04-2.7 6.2-2.23 11-2"/><path fill="#bb7981" d="M365 152h32l1 8c-4.73 2.77-8.13 3.36-13.59 3.3l-2.12-.02q-3.33-.03-6.67-.1l-4.54-.03q-5.55-.06-11.08-.15l-.94 2.38A53 53 0 0 1 354 175c-2.25.94-2.25.94-4 1 2.33-5.81 5.2-11.4 8-17l36-1 2-5h-31z"/><path fill="#d70014" d="M200 123h60c2.25 5.63 2.25 5.63 1 9v-2l-13 2v6c-2-3-2-3-2.94-6.62L244 128l-3-1v-2l-3.55.03a3287 3287 0 0 1-18.64.12q-4.05.04-8.08.05l-2.56.03q-3.09-.02-6.17-.23z"/><path fill="#d8dadc" d="M108 32h3l1.32 3.23.87 2.1 1.88 4.61c1.54 3.75 3.1 7.48 4.77 11.17l.85 1.9 2.34 5.13c.99 2.91 1.1 4.07-.03 6.86-2-2-2-2-2.75-4.06C119 61 119 61 115.88 60.25L113 60v2l-4-1z"/><path fill="#d33444" d="m295.7 101.7 2.2-.01h4.58q3.48-.01 6.94-.05c7.65-.03 14.5.1 21.58 3.36l1 2h-52c3.7-5.55 9.5-5.3 15.7-5.3"/><path fill="#ad2735" d="M42 119h2l.3 3.18C45.48 133.7 47.7 143.36 56 152a57 57 0 0 0 6.27 4c1.73 1 1.73 1 3.73 3l-3 1 2 2c-4.45.43-6.38-.59-9.81-3.37l-2.4-1.9L51 155v-2h-2c-6.06-7.32-9.82-17.4-9.3-26.9.37-2.58 1.07-4.8 2.3-7.1"/><path fill="#b9bcbf" d="M470 165h22v6h-8l-1 14-5 1v-15h-8z"/><path fill="#d19fa6" d="m219 138.25 7.84.16q9.58.21 19.16.59c-1.67 2.07-2.52 2.93-5.2 3.32l-2.6-.08-2.96-.06-3.19-.09-6.7-.06q-5.28-.05-10.55-.2c-19.24-.53-19.24-.53-23.63 2.38-3.01 3.15-4.48 6.85-6.17 10.79l-3 1c1-5.97 2.43-11.6 7.02-15.86 8.12-4.67 21.02-2.25 29.98-1.89"/><path fill="#edaeb6" d="M518.1 100.89h2.5l2.66.01 17.31.05L555 101v1l-3.29.06a3107 3107 0 0 0-17.37.36q-3.78.07-7.56.17l-2.35.03c-6.15.17-11.5.7-16.3 4.88C506 110 506 110 505 112l2.08-.04 2.73-.02 2.71-.04c2.48.1 2.48.1 5.48 1.1l-2 9h-14c-.3-5.84.04-9.77 3-15 3.85-4.07 7.47-6.13 13.1-6.11"/><path fill="#3e131b" d="M490 75v21h-13c-1.08-9.61-1.08-9.61 1.9-13.44C487.5 75 487.5 75 490 75"/><path fill="#5a6670" d="M157 61h2v21h-3v2q-2.21 1.89-4.47 3.7A16.7 16.7 0 0 0 146 96c-1.55 1.26-1.55 1.26-3.53 2.48l-2.15 1.34-2.26 1.37-2.25 1.4C130.28 106 130.28 106 128 106c1.4-4.18 4.36-5.47 7.94-7.69l1.96-1.26C142.72 94 142.72 94 145 94l.34-2.09c.76-3.34 1.9-6.34 3.16-9.52l.74-1.87 3.9-9.81z"/><path fill="#9f6269" d="m368 99 1 35c2.62 1.3 4.63 1.16 7.56 1.21l3.36.09q3.5.08 7.03.13l3.36.1 3.09.05c2.91.47 3.81 1.13 5.6 3.42q-6.3.15-12.6.22l-4.28.08q-3.09.06-6.17.1l-3.74.05c-3.21-.45-3.21-.45-5.63-2-2.16-3.35-1.98-6.22-1.75-10.06l.08-2.2q.16-3.48.34-6.94l.2-4.71q.25-5.78.55-11.54h-16l-1-2 6.69-.5 3.76-.28c2.85-.18 5.7-.22 8.55-.22"/><path fill="#bc0819" d="M425 123h15c.2 10.74.2 10.74 0 14l-2 2v-3q-2.16-.12-4.31-.19l-2.43-.1c-2.74.35-3.55 1.18-5.26 3.29-2.23-4.46-1.04-11.22-1-16"/><path fill="#cc0004" d="M57.31 132.63c2.69.37 2.69.37 4.88 2.8L64 138l2 1v4c2.66.89 4.48 1.18 7.23 1.32l2.43.12 2.53.12 2.56.13L87 145c-2 2-2 2-4.46 2.23l-2.92-.04-2.9-.02c-2.39-.15-4.43-.5-6.72-1.17l-1 3-2 1 1 2h-3v2l-3-1c-.69-2.06-.69-2.06-1-4h-4l.19-2.44c-.24-4.54-1.61-8.33-3.19-12.56 1-1 1-1 3.31-1.37"/><path fill="#666575" d="m60 110 3 2c9.55 3.5 19 3.32 29 3l3 6c-3 0-3 0-4.69-1.5L89 118l-1.87 2C85 122 85 122 83 122v2h-2v-2l-2.92-.08-3.83-.17-3.8-.14C66.6 120.93 65.4 120 63 117l-1 2h-3c-.1-6.15-.1-6.15 0-8z"/><path fill="#f18c97" d="m476 107 14 1v14h-14z"/><path fill="#97242e" d="m355 171 1 2 52-1c-10.18 7.63-26 5.12-38.25 5.06l-5.18-.01L352 177v-2h2z"/><path fill="#8d96a0" d="M75 53c-.43 2.93-.92 3.92-3.12 6-3 4.78-1.67 9.6-.88 15l-10 1-1-5.25-.56-2.95C59 64 59 64 59 60l6.88-3.5 1.97-1.01C72.77 53 72.77 53 75 53"/><path fill="#bb0416" d="M554.38 121.9q2.1 0 4.18.04l2.16.01 5.28.05v5c-3.25 1.63-3.25 1.63-7 3l-4-2q-3.58-.34-7.17-.41l-2.07-.06-6.51-.15-4.43-.12q-5.4-.15-10.82-.26v5h-2v-9l2.55.02 13.41.06 9.36.03c3.39-.14 3.42-1.1 7.06-1.2"/><path fill="#bfc3c5" d="M83 53c3.97.7 7.27 2.63 10.75 4.56L100 61q-.45 2.94-.94 5.88l-.52 3.3C98 73 98 73 97 75l-10-2q.67-2.21 1.38-4.5c.68-3.28.95-4.85-.58-7.87-1.67-2.13-1.67-2.13-3.42-4.04C83 55 83 55 83 53"/><path fill="#faa9b3" d="M552 113h14v9l-3.25.18-4.19.26-2.14.12c-5.3.33-5.3.33-6.42 1.44q-3 .12-6 .1l-3.69-.01-7.76-.04L523 124v-2l29-1z"/><path fill="#d9acb2" d="M518 141h48c-4 4-4 4-6.02 4.5l-2.15-.01-2.46.01-2.62-.04h-2.72q-2.85 0-5.68-.05-4.35-.04-8.7-.04-2.77 0-5.53-.03l-2.63-.01-2.45-.04-2.15-.02C521 145 521 145 518 143z"/><path fill="#b80a1a" d="M365 102h1v30l-2 1v-2c-9.23 1.27-9.23 1.27-12 2l-1 2v-13h14z"/><path fill="#7c000b" d="M276 138h11v14l-2-3c-1.95-.51-1.95-.51-4.12-.69L277 148c-1.06 3.18-1.2 5.64-1.32 8.98l-.12 3.53-.12 3.68-.13 3.71-.31 9.1 4 1-5 3a3337 3337 0 0 1-.15-21.39q-.04-3.9-.05-7.8l-.03-2.45v-2.3l-.01-2.02C274 143 274 143 276 138"/><path fill="#fcb7c0" d="M351 110h13c1.37 4.11 1.06 7.67 1 12h-14z"/><path fill="#794f55" d="m115 68 4 1-1 5h1l1-6 4 1-1 4h-2l-.87 1.75L117 81h-2v3l-4 1v-2l-2.19-.87L101 79c1-3 1-3 2.81-4.19C106 74 106 74 110 74c1.48-1.31 1.48-1.31 2.75-3z"/><path fill="#8c949c" d="M522 165h6c-.62 6.85-2.04 16.04-7 21-3.12-.37-3.12-.37-6-1l-3-11c5 2 5 2 7 3z"/><path fill="#c05863" d="M135 135h1l.18 2.3c1.1 3.62 2.6 4.23 5.88 6.01l2.79 1.55L147 146l2-2 4 2v2l4 2-2 1q.14 2.91.31 5.81l.18 3.27c.55 3.17 1.14 3.9 3.51 5.92v2c-3.26-.56-5.04-1.29-7-4-.69-3.19-.69-3.19-1-6h-2l-.31-1.94L148 154l-3-1v-2l-5-1 1-3h3l-1.97-1.1A49 49 0 0 1 135 141c-.56-3.37-.56-3.37 0-6"/><path fill="#f7c7cd" d="m204 111 3 1q3.6.2 7.2.28l2.14.06 6.78.16c17.9.41 17.9.41 25.88 1.5v1l-7 1v1l-48 1v3c-1.5-1.31-1.5-1.31-3-3v-3l15-1-2-1z"/><path fill="#730006" d="M246 141h13c0 6 0 6-2.19 8.75-4.6 3.68-8.23 4.5-14.07 4.48h-3.76l-8.18-.04-10.88-.05-11.13-.04q-10.9-.03-21.79-.1c.38-2.44.38-2.44 1-5l2-1v4a6663 6663 0 0 0 30.97.15q5.65.04 11.32.05l3.53.03c11.09 0 11.09 0 16.18-2.23l2-4-9-1z"/><path fill="#b31927" d="M115 121h2v2h2c-.24 12.24-3.74 21.64-11.16 31.36-2.23 1.99-3.9 2.3-6.84 2.64l1-2h2l.19-2.56c.76-3.24 1.23-4.22 3.19-6.69 4.85-6.38 5.9-14 6.4-21.82C114 122 114 122 115 121"/><path fill="#a6abb1" d="M91 79c7.9.34 14.57 4.35 20.13 9.88L113 91l-7-1 6 7-1 2-1.46-1.28-1.92-1.66-1.9-1.65C104 93 104 93 102 92l1 3a29 29 0 0 1-9-5l7-2-3.37-.94C94 86 94 86 92 85c-.62-3.06-.62-3.06-1-6"/><path fill="#cc6d7b" d="M74 88v1l5.25.06 2.95.04c2.8-.1 2.8-.1 4.78-.77 3.2-.52 5.2.9 8.02 2.36l3.13 1.57A26 26 0 0 1 105 98v2c-2.81-.43-4.23-1.17-6.56-2.87-6.96-4.8-16.18-6.1-24.44-5.13a62 62 0 0 0-16 6h-2c1.49-4 3.62-5.27 7.31-7.25l2.87-1.58A14.6 14.6 0 0 1 74 88"/><path fill="#3e0004" d="m403 157 4 1v9l-3 1-1 2-8.37.06-2.41.03c-6 .02-6 .02-8.22-1.09v-3l13-1v-3c1.88-1.56 1.88-1.56 4-3z"/><path fill="#cfcfd2" d="m458.25 164.75 2.26.05q2.75.08 5.49.2v6h-14v2h4v2l-9 1-1 3q-.16-2.37-.25-4.75l-.14-2.67c.39-2.58.39-2.58 1.89-4.9 3.5-2.36 6.69-2.12 10.75-1.93"/><path fill="#75000b" d="M372 140h25v2l2-1q2.75-.14 5.5-.12l2.97-.01C410 141 410 141 412 142v3a10052 10052 0 0 1-31.93-.68l-2.65-.05c-5.53-.14-10.93-.59-16.42-1.27l-2 3-1-5h14z"/><path fill="#d8828e" d="M205.63 109.47c4.66 1.82 8.94 2 13.9 2.04l2.66.06 8.31.12 5.67.1q6.91.13 13.83.21v1h-44l1 2h-16l-1 2-1-8q3-.37 6-.69l3.37-.38c3.63.07 3.63.07 7.26 1.54"/><path fill="#e66d7b" d="M469 108v6h-24v-1l-17-1 1-3 30.37-.78 2.57-.07c5.95-.15 5.95-.15 7.06-.15"/><path fill="#600008" d="M331 146c-.72 1.92-.72 1.92-2 4-8.8 3.77-20.61 2.18-30 2l-1-4c2.64-1.32 4.76-1.21 7.7-1.32l3.47-.12 3.64-.12 3.6-.13c4.87-.18 9.72-.34 14.59-.31"/><path fill="#a72f3b" d="M276 104h2l-.62 1.65A61 61 0 0 0 274 122h14v1h-14v15h-1l-1 46 3 1-4 1q-.14-13.65-.2-27.3l-.1-12.69q-.07-6.12-.08-12.25 0-2.32-.04-4.66c-.12-8.44-.06-15.7 4.42-23.1z"/><path fill="#e35867" d="m508 106 1 2h55v3h-59z"/><path fill="#10131a" d="M540.47 169.87h6.06C549 170 549 170 550 171q.14 2.25.13 4.5v2.47C550 180 550 180 549 181q-2.75.14-5.5.12l-3.03.01C538 181 538 181 537 180q-.14-2.25-.12-4.5l-.01-2.47c.2-3.02.56-3 3.6-3.16"/><path fill="#a73941" d="M329 101c5.1 1.35 8.36 4.56 11 9 2.04 6.32 2.37 12.26 2.38 18.88l.07 2.81c.03 7.35-1.13 14.68-6.26 20.29-2.68 2.42-4.74 3.87-8.19 5.02v-3l2.75-1.81c3.9-2.63 6.35-5.5 7.86-10.01.88-4.92.32-10.03.14-15l-.08-3.52c-.47-13.18-.47-13.18-5.28-18.4l-1.58-1.14L329 102z"/><path fill="#610007" d="M581 142h8c1.33 3.98 1.07 7.85 1 12h-12v-9h2z"/><path fill="#f34363" d="M74 147h11v4l3 1-4 1-1 4-5.31.06-3 .04C72 157 72 157 69 156v-3h2v-2h3z"/><path fill="#735055" d="M44 65h4v6l1.69.69c2.94 1.67 5 3.86 7.31 6.31l-4.37 3.5-2.47 1.97C48 85 48 85 46 85c-2.36-2.65-3.87-4.62-5-8-1.56-1.69-1.56-1.69-3-3h2v-3c3.8 1.5 5.61 3.76 8 7h-3l1 3 2 1v-3h3v-4l-2.37-.94C46 73 46 73 44 72z"/><path fill="#ddddde" d="m544 164.56 3.69-.06c3.31.5 3.31.5 5.76 2.32 1.55 2.18 1.55 2.18 1.3 5.43L554 175h-3l-2-4c-10.17-.63-10.17-.63-13.62 2l-1.38 2h-1c-.25-3.31-.25-3.31 0-7 3.24-3.5 6.4-3.43 11-3.44"/><path fill="#fbb2ba" d="M413 112v10h-14c-.1-6.15-.1-6.15 0-8 1.54-1.54 3.17-1.34 5.31-1.56l2.37-.26c2.1-.16 4.21-.18 6.32-.18"/><path fill="#ccced2" d="M67 78c2.68 4.02 2.16 6.24 2 11-3.73 2.03-5.67 3-10 3v-2l-3.37 2.06c-1.9 1.16-1.9 1.16-3.63 1.94l-2-1q2.62-1.77 5.25-3.5l2.95-1.97C61 86 61 86 65 86l-1-1q-2.55.15-5.06.44l-2.79.3L54 86c1-3 1-3 2.7-4.13l2.11-1 2.08-1c2.03-.84 3.98-1.4 6.11-1.87"/><path fill="#a81925" d="M272 118h1a1245 1245 0 0 1 1.56 42.25L275 180l2-2 3 1c-2.31 2.5-2.31 2.5-5 5h-3z"/><path fill="#e0d7dd" d="M89 95c4.04 1.22 7.55 2.54 11 5l1 3-2 3c.36 3.42 1.1 6.69 2 10h-2a264 264 0 0 1-3.62-5.2C94 109 94 109 91.18 106.82L89 105v-4h2v-2l-2-1z"/><path fill="#af7a83" d="M9 85h2l.81 3.56C14.07 94.7 19.58 96.95 25 100q1.86 1.19 3.69 2.44L31 104l-2 8h-2l.19-2.87L27 106l-3-2-1 3c-1.94-.81-1.94-.81-4-2l-1-3-2 1-2-1v-4l-1.43-1.43c-2.1-2.1-2.27-3.84-2.76-6.76l-.48-2.73z"/><path fill="#5c0005" d="M286 149c1.37 4.11 1.38 8 1.5 12.31l.16 2.56c.08 3.63.12 6.12-2.15 9.06-2.84 2.53-4.62 3.96-8.45 4.44L275 177v-6l2.69.06C281 171 281 171 286 170v-14h-2v-3l-6-1-2 4h-1c-.2-3.72-.15-4.77 2-8 3.8-1.27 5.39-.57 9 1"/><path fill="#b91422" d="M491 112h1q.17 6.72.25 13.44l.1 3.82c.15 14.17.15 14.17-4.35 19.74-2.14.73-2.14.73-4 1l1.38-1.94c4.1-7.72 4.08-16.5 4.62-25.06h-14l1 18c-2-2-2-2-2.23-4.61l.03-3.27.02-3.54.06-3.7.02-3.74.1-9.14h1v9h15z"/><path fill="#c07078" d="M318 116q2.5-.06 5 0c2.54 2.54 1.23 9.52 1.25 12.94l.06 3.4.02 3.25.03 3L324 141c-3.5 2.33-4.86 2.24-8.98 2.2l-3.53-.02-3.68-.06-3.71-.02-9.1-.1-1-2 1.94-.06 8.75-.31 3.05-.1 5.67-.21A25 25 0 0 0 321 138q.13-4.65.19-9.31l.07-2.67.08-4.94c-.42-2.58-1.35-3.44-3.34-5.08"/><path fill="#d22e3e" d="m189 98 1 2-1 2h15v7h-15l-1 4q-.05-3.46-.06-6.94l-.04-3.9C188 99 188 99 189 98"/><path fill="#909aa2" d="M589 175c3.75-.41 7.27-.63 11 0a17 17 0 0 1 4 5.47l1 1.53h3v4c-2.69-.12-2.69-.12-6-1a159 159 0 0 1-5-6c-2.31-.87-2.31-.87-4-1v7l-6 1c.88-7.62.88-7.62 2-11"/><path fill="#96252b" d="m255 153 2 1c-3.5 2.36-5.92 3.39-10.14 3.51l-3.13.1-3.42.08-3.59.1c-18.23.44-36.48.3-54.72.21l-1-4 3 1q3.2.14 6.43.15h1.96l10.88.03h9.36q6 0 11.99.04l13.64.02H248c2.93-.23 4.46-.87 7-2.24"/><path fill="#a1343c" d="m431 102 2 1-1.28 1.64-1.66 2.17-1.65 2.15C427 111 427 111 426 114h-2q-.2 5.94-.31 11.88l-.13 3.35c-.13 8.82 1.61 15.62 7.69 22.2 3.74 2.13 7.62 3.38 11.75 4.57v2c-6.94-.25-10.96-2.22-16-7-5.64-6.2-5.34-13.97-5.31-21.87l-.05-2.86c0-7.8.94-15.47 6.55-21.33l1.6-1.73z"/><path fill="#af0515" d="M563 128v3c-7.98 4.04-16.3 3.33-25 3.19l-4.66-.04L522 134v-2c3.01-1.5 6.15-1.2 9.46-1.25l4.56-.1 7.19-.13 6.93-.14 2.16-.03c3.99-.1 7.1-.6 10.7-2.35"/><path fill="#76808b" d="M560 166h1v11h16v4h4l1 5c-2.75-.19-2.75-.19-6-1l-4-5c-3.25-.81-3.25-.81-6-1v6h-5c-1-4.16-1.1-8.04-1.06-12.31l.02-3.8z"/><path fill="#a7a1a2" d="M44 166c3.77.66 6.53 2.36 9.75 4.38l2.98 1.83L59 174v3c-3.49-.97-5.78-1.81-8.56-4.19C48 171 48 171 45.62 171.2c-4.5 1.38-7.8 4.05-10.62 7.8-.4 3.1.14 4.92 1 8-3-1-3-1-4.25-2.75-.98-2.93-.7-4.3.25-7.25 2.21-2.46 2.21-2.46 4.94-4.81l2.71-2.4C42 168 42 168 44 168z"/><path fill="#a42e39" d="M575 115h1v41l16-1 1-35h1v38h-19z"/><path fill="#84434e" d="M493 70c.28 14.35.28 14.35-1 21l-2 1-1-16-13 10-1-4 7.31-6 2.1-1.73q.99-.82 2.02-1.64l1.85-1.53C490 70 490 70 493 70"/><path fill="#c8cccf" d="M509 165h6q.8 2.15 1.56 4.31l.88 2.43C518 174 518 174 517 177l-5-3-3 7-1-3-3 1c.47-5.41 1.24-9.2 4-14"/><path fill="#fbb8c0" d="M322 114q2.88-.05 5.75-.06l3.23-.04A25 25 0 0 1 338 115l1 7h-14z"/><path fill="#e79ea7" d="M240 113c13.96-.86 13.96-.86 17.88 2.25C260 118 260 118 260 122h-17v-1l15-1-3-3v-2l-3 1 1 2-4.94.06-2.77.04C243 118 243 118 242 117q-3.76-.24-7.54-.32l-2.28-.06-12.14-.31L208 116v-1l32-1z"/><path fill="#9c262e" d="M483 150h4l1 3c-6.6 4.02-11.22 5.13-19.05 5.1h-2l-10.53-.05L446 158v-1c5.69-.98 11.17-1.12 16.94-1.06l2.65.01 6.41.05v-2l2.15-.62 2.79-.82 2.77-.8C482 151 482 151 483 150"/><path fill="#cec7c9" d="M131 128c4.6 1.58 8.32 4.04 12.31 6.75l5.92 4.03q2.25 1.56 4.53 3.07l2.18 1.53 1.84 1.27C159 146 159 146 159 150h-2l-3.44-3.55A33 33 0 0 0 144 140c-2.25.37-2.25.37-4 1l-.56-2.81c-1.55-3.43-1.83-3.71-5.06-5.06L131 132z"/><path fill="#a14a56" d="M592 99h39c-1.1 6.64-2.32 12-7 17-4.64 1.5-9.03 1.36-13.87 1.19h-3.83q-4.65-.03-9.3-.19v-2l3.7-.18 4.86-.26 2.43-.12q3.5-.19 7.01-.44l3.88-.23c3.12-.77 3.12-.77 5.08-2.95l1.41-2.7 1.47-2.67C628 103 628 103 629 100h-37z"/><path fill="#9b313a" d="m202 85-1.64.85C194.89 88.9 193 91.09 191 97l-2 2c-1.12 8.84-.35 15.78 5 23l-2 2c-6.02-7.03-6.54-13.18-6.31-22.1.52-6.56 2.5-10.5 7.37-14.84 4.87-3.42 4.87-3.42 8.94-2.06"/><path fill="#dc9aa4" d="M62 159h12v2l3.44-.56c4.64-.6 8.96-.13 13.56.56l-2 1v3q-4.24.15-8.5.25l-2.4.1c-5.8.1-10.29-.97-15.1-4.35z"/><path fill="#a71d27" d="M558 150h2l-2 6q-8.54.11-17.08.16l-5.8.07-8.37.06-2.6.05c-5.71 0-9.9-1.05-15.15-3.34l1-2 3.42.97c4.65 1.16 9.11 1.38 13.9 1.44l2.58.06 8.1.16 5.53.11q6.74.15 13.47.26z"/><path fill="#c0000f" d="M578 123h13v12l-1-3-12-1z"/><path fill="#f497a2" d="M578 114h17l-3 8h-15z"/><path fill="#a9a1ad" d="m58 103 2 1v2l5 1v2h-3c6.06 1.9 11.96 2.36 18.28 2.57 3.97.17 7.12.7 10.72 2.43l-1 2c-22.66.84-22.66.84-29.69-5.37A21 21 0 0 1 58 103"/><path fill="#ddb6ba" d="m441 138 2.09.97c3.3 1.17 6.02 1.35 9.52 1.44l3.78.12 3.92.1 3.98.11q4.86.15 9.71.26l-1 3a2105 2105 0 0 1-16.96.15q-3.09.04-6.18.05l-3.77.03C443 144 443 144 440 142z"/><path fill="#c4c6c9" d="M117 49c2.43 2.43 3.34 4.71 4.69 7.88l1.38 3.17C124 63 124.12 64.2 123 67c-2-2-2-2-2.75-4.06C119 61 119 61 115.88 60.25L113 60v2l-4-1v-7l3 3v-6h4z"/><path fill="#982d34" d="M567 112h2c.47 7.13.6 13.2-4 19-5.26 3.76-10.3 4.57-16.62 4.43l-2.38-.01q-2.47-.01-4.93-.06a2410.37 2410.37 0 0 1-12.38-.12l-2.3-.02c-5.27-.1-5.27-.1-6.39-1.22q-.1-3.03-.06-6.06l.02-3.35.04-2.59 2 1v11q6.82-.1 13.66-.26l4.64-.09c16.36-.24 16.36-.24 22.7-3.65 2.35-3.53 2.66-6.59 3.13-10.69l.26-2.12z"/><path fill="#dcb8bd" d="M597.16 99.9h2.75l14.61.05L629 100v2l-3.07.04q-5.7.1-11.39.22l-4.9.09c-21.8.3-21.8.3-29.64 7.65 3.98-8.96 7.88-10.15 17.16-10.1"/><path fill="#b78791" d="m517 99 22.11-.08 8.07-.02 2.53-.01c8.03 0 8.03 0 11.91 3.42 2.28 2.58 2.77 3.5 3.38 6.69l-1.4-1.02-1.85-1.36-1.83-1.33c-4.84-3.25-8.83-3.62-14.62-3.7l-2.54-.06-8.01-.16-5.44-.11q-6.65-.15-13.31-.26z"/><path fill="#9d9ca0" d="M112 166c5.93 2.4 11.86 7.18 16 12v2c-4 0-4 0-6.37-2.19L119 175c-1.96-1.72-3.98-3.35-6-5l-3.37 1.88-1.9 1.05C106 174 106 174 104 176l2 1v3c-3.65-1.25-4.78-1.67-7-5l8.4-6.15C110 167 110 167 112 166"/><path fill="#e4e6e8" d="M562 166q4.19-.08 8.38-.12l2.4-.06c2.07-.01 4.15.08 6.22.18 2 2 2 2 2.13 5.13L581 174l-4 1-1-4-11-1v5l-3-1z"/><path fill="#911921" d="M471 99c1.23 3.68.9 6.91.56 10.75l-.3 3.55-.26 2.7-2.14.06-9.61.31-3.37.1-3.24.12-2.98.1c-4.3.5-6.79 2.15-9.66 5.31-.36-4.47-.36-4.47 1.14-6.65 2.65-1.92 4.59-1.7 7.84-1.64l3.53.03 3.68.07 3.71.04q4.56.07 9.1.15v-13h2z"/><path fill="#b17782" d="M295.7 98.67h2.42l5.02.05q3.82.04 7.66.05l7.2.04c3.78.05 7.32.28 11 1.19v1h-3.93q-7.25 0-14.48.1-3.15.02-6.26.02-4.51 0-9.02.08l-2.8-.03c-5.98.13-9.06 1.32-13.34 5.55L278 108c-1-2-1-2-.56-3.94 4.14-5.46 11.97-5.5 18.26-5.39"/><path fill="#91020e" d="m403.5 131.9 3.06.04 3.07.02 2.37.04c.9 5.36 1.12 10.5 1.06 15.94l-.01 2.36-.05 5.7h-1l-.18-3-.26-3.87-.24-3.87C411 142 411 142 410 140c-2.29-.41-2.29-.41-5.06-.62l-2.79-.23L400 139q-.06-3 0-6c1-1 1-1 3.5-1.1"/><path fill="#951d2a" d="m232.13 93.94 6.1.01L253 94v3h-62v-2c13.72-.95 27.37-1.12 41.13-1.06"/><path fill="#5d0005" d="m358 166 2 1v4h42c-2 2-2 2-3.91 2.24l-2.36-.01h-2.67l-2.88-.03-2.95-.01-9.36-.06q-3.16-.02-6.33-.03-7.77-.03-15.54-.1c.88-4.75.88-4.75 2-7"/><path fill="#a29798" d="m25 128 3 1c-2.58 2.65-4.92 4.94-8 7-1.19 2.63-1.19 2.63-2 5l-1.62-.75c-3.71-.4-5.54 1.56-8.5 3.69C2.17 148 2.17 148 0 148v-3a90 90 0 0 1 6.88-4.75l4.13-2.66 2.06-1.32c3.43-2.25 6.7-4.72 9.98-7.19z"/><path fill="#6c5a66" d="M59 90v2l2 1-1.6 1.4c-6.03 5.22-6.03 5.22-8.77 8.04C49 104 49 104 47 104v-3l-1 2h-3v-2h-2l1-3h3l1.69-1.75C49.86 93.16 54.42 90 59 90"/><path fill="#b04049" d="m516 101-1.6.7c-4.56 2.1-7.94 3.76-10.4 8.3-.9 3.98-1.51 7.95-2 12h-1c-.4 10.39.06 19.68 5 29-2.37-.95-3.72-1.52-5.03-3.76-2.02-6.28-2.46-12.1-2.4-18.68l-.07-2.94c0-7.45 1.08-14.95 6.34-20.6 6.2-5.5 6.2-5.5 11.16-4.02"/><path fill="#bf1526" d="m500 119 1 3h16v15h-2v-14h-13c.7 14.59.7 14.59 3.48 21.23C506 146 506 146 505 149c-4.71-6.86-5.3-13.95-5.12-22l.02-2.35z"/><path fill="#82878f" d="M151 76h2l-1 7 4 1-2.81 2.25c-3.47 2.9-5.74 5.4-7.19 9.75-1.55 1.26-1.55 1.26-3.53 2.48l-2.15 1.34-2.26 1.37-2.25 1.4C130.28 106 130.28 106 128 106c1.4-4.18 4.36-5.47 7.94-7.69l1.96-1.26C142.72 94 142.72 94 145 94l.34-2.07c.77-3.4 1.94-6.5 3.22-9.74l1.38-3.52z"/><path fill="#575e64" d="M435 165h5c2.78 5.56.97 14.05 0 20l-1 1c-3.47 0-6.02-.03-8.57-2.56-3.43-4.72-3.43-4.72-3.43-7.44 2.38.25 2.38.25 5 1a13 13 0 0 1 2 4l5-1v-14z"/><path fill="#a4000e" d="M261 130c1.6 3.21 1.06 6.44 1 10l-1-3-14 2 1-7c4.5-2.25 8.08-2.17 13-2"/><path fill="#d22939" d="m515 102.68 2.29.07 2.6.06 2.8.12a1267.72 1267.72 0 0 1 11.99.39l6.18.18q7.58.23 15.14.5v2h-46c3-3 3-3 5-3.32"/><path fill="#a72a34" d="M349 114h1l.21 2.58q.41 4.77.85 9.54l.36 4.11q.25 2.97.53 5.94l.32 3.6c.84 3.7 2.12 5.5 4.73 8.23 1.92 1.14 1.92 1.14 3.75 1.81L364 151c-1.62.75-1.62.75-4 1-5.48-2.68-8.37-6.65-11-12a28 28 0 0 1-1.13-8.44v-12.54C348 117 348 117 349 114"/><path fill="#a2040a" d="M98 132q2.52.43 5 1c.13 6.63.13 6.63-1 10 .44 2.19.44 2.19 1 4-4 0-4 0-6-1l-.25 3.38C96 153 96 153 93.94 154.44L92 155v-2l-2-1c1.38-1.5 1.38-1.5 3-3h2l-1-5 5-1c1-5.75 1-5.75 1-8l-5 3c1.88-4.87 1.88-4.87 3-6"/><path fill="#f9a7b1" d="M503 115q2.69-.05 5.38-.06l3.02-.04c2.6.1 2.6.1 4.6 1.1v6h-14z"/><path fill="#53535c" d="M99 61c1.5 2.99.4 4.95-.44 8.13l-.87 3.32L97 75l-10-2 1-5h2l2-3 3-1 1-2z"/><path fill="#450004" d="m279 158 6 1v11h-9c-.3-5.02.01-7.9 3-12"/><path fill="#fcb5be" d="M477 115h13v7h-13z"/><path fill="#f8a8b1" d="M275 115c4.52-.08 8.6-.1 13 1v6h-14z"/><path fill="#9e454e" d="M131 104h3l.81 2.44L136 109l3 1 1 3 5-1-1 3a22.4 22.4 0 0 1-11 2l-2-7h-2c.88-4.87.88-4.87 2-6"/><path fill="#e87785" d="m535.19 109.94 5.2.01L553 110c-3.43 2.08-6.18 2.28-10.16 2.34l-3.6.1-7.49.13-3.6.09-3.28.05c-2.8.28-4.48.84-6.87 2.29v-2l-13-1v-1c10.05-1.26 20.08-1.11 30.19-1.06"/><path fill="#505b67" d="m111 100 1.69 1.56C115 103 115 103 117.75 102.7L120 102l2 7-5 2 1 6h-3q-1.3-3.69-2.56-7.37l-.75-2.12q-.91-2.73-1.69-5.51z"/><path fill="#a81927" d="m605.75 113.75 2.7.05q3.27.08 6.55.2v1h-18l-2 5h-2v35h-2c-.1-9.83-.14-19.67.25-29.5l.04-2.12c.15-3.05.6-5.18 2.15-7.83 3.98-2.4 7.76-1.97 12.31-1.8"/><path fill="#ba4f58" d="m23 141 2 2c-.37 2.13-.37 2.13-1 4h-5v4l-3.37.81C12 153 12 153 10 156H7v8H6c-.62-7.95-.62-7.95 1.75-11.94A23 23 0 0 1 14 148l2.5-2.5c2.18-2.18 3.7-3.36 6.5-4.5"/><path fill="#5b5f6a" d="M159 85c1.8 17.75 1.8 17.75-2.3 22.89-4.41 2.78-7.45 4.11-12.7 4.11l2.13-1.69q2.26-1.8 4.47-3.69c4.2-3.62 4.2-3.62 6.4-3.62l-1-8h-1c-.3-6.05-.3-6.05 0-8 3-2 3-2 4-2"/><path fill="#b40004" d="M57.31 132.63c2.69.37 2.69.37 4.88 2.8L64 138l2 1-1 2-7-2 1 8h4v2h2l1 3-1 2-3-1c-.69-2.06-.69-2.06-1-4h-4l.19-2.44c-.24-4.54-1.61-8.33-3.19-12.56 1-1 1-1 3.31-1.37"/><path fill="#ac2632" d="M260 119c3.18 2.12 3.77 3.08 4.64 6.69 1.33 8.65 1.32 17.77-3.64 25.31-2.14 1.27-2.14 1.27-4 2l1.98-2.93c2.5-4.39 2.55-8.18 2.4-13.13v-2.36c-.08-4.6-.86-8.2-2.38-12.58z"/><path fill="#e35260" d="m582 108 42 1v2h-43z"/><path fill="#dd3847" d="m585 105 2 1q4.25.24 8.5.32l2.56.06 13.53.31L625 107l-1 3-41-1z"/><path fill="#4f0105" d="M408 155c1.01 4.62 1.13 8.38 0 13-1.69 1.94-1.69 1.94-4 3-3.25.19-3.25.19-6 0v-1h5l1-3h3v-9c-3.77.51-5.45 1.2-8 4h-2v3h-4l-1-3 2.38-.69c3.3-1.65 3.34-2.98 4.62-6.31 3.13-1.51 5.72-.82 9 0"/><path fill="#85000a" d="M337 134c1 1 1 1 1.19 4.25A20 20 0 0 1 336 147c-1-3-1-3-1-7l-11 1c3.04-7.6 5.67-7.35 13-7"/><path fill="#ba0516" d="m259 124 2 1q.6 3.49 1 7l-1-2-13 2v6c-2-3-2-3-2.94-6.56C244 128 244 128 241 126l18 1z"/><path fill="#585f65" d="m0 84 4 2-1 2c-.8 5.24-1.02 9.82 0 15 3.17 3.65 6.79 5.72 11 8q2.04 1.46 4 3c-4.5.44-6.55-.7-10.12-3.37l-2.58-1.9L3 107l-3-2c-.34-2.15-.34-2.15-.3-4.79l.04-2.85.07-2.98.04-3.01Q-.09 87.69 0 84"/><path fill="#982e38" d="M473 104h2c1.59 3.17 1.12 6.59 1.1 10.07v2.41l-.05 12.82L476 142l-2 1v-2h-28v-1l26-1c1.5-3.01 1.12-6.11 1.1-9.41v-2.22l-.05-11.74z"/><path fill="#edbdc4" d="m553 117 12 3v1l-2.52.15-3.3.22-3.26.22C553 122 553 122 550 124c-2.82.23-2.82.23-6.2.2l-3.66-.02-3.83-.06-3.86-.02-9.45-.1v-2l2.45-.08 10.92-.36 3.86-.12 3.67-.12 3.4-.11C550 121 550 121 552 120z"/><path fill="#d31b2c" d="m398 102 14 1v3h-12l-1 16h14v1h-14v12h-1z"/><path fill="#6e757e" d="m53 84 1 2 10-2 1 2-3.06 1.25a60 60 0 0 0-7.56 3.88C51.35 92.8 49.3 93.33 46 94l-2 3-2-1c1.5-3.67 3.64-5.69 6.63-8.25l2.47-2.14z"/><path fill="#a53e4a" d="M396 99h19l-1 2-16-1 1 38-3-1z"/><path fill="#b32e33" d="m104 150 1 2-1 3-2 1v3c-3.24 2.77-5.37 3.92-9.62 4.44-3.58-.47-4.69-1.22-7.38-3.44l1.9-.45c6.84-1.79 12.07-4.52 17.1-9.55"/><path fill="#d32737" d="M587 105h38l-1 3-38-1z"/><path fill="#d30c1d" d="m324 119 1 3h14v5l-1-2-12 1 .06 3.69c0 3.23-.27 6.16-1.06 9.31h-1z"/><path fill="#9c141e" d="m376.93 149.9 3.9.01 8.15.04L399 150v8l-2-1v-5l-33 1v-2a65 65 0 0 1 12.93-1.1"/><path fill="#f1dddf" d="m289.27 100.56 2.6-.05 2.8-.01 2.9-.03q3.04-.03 6.07-.03 4.63-.02 9.25-.11l5.9-.02 2.79-.07c5.95.07 8.98 1.26 13.25 5.47L336 107l-1 2-2-1.88c-5.74-4.06-12.15-4.42-19-4.35l-6.8.02q-3.49.02-6.98.02l-4.48.02h-2.08c-3.98.04-7.75.4-11.66 1.17 2.32-2.77 3.68-3.38 7.27-3.44"/><path fill="#70787e" d="m110 90 2.5.75c3.08 1.54 4.52 3.47 6.5 6.25l-2 5c-4.21-2.1-6.75-4.8-9.67-8.38C106 92 106 92 104 90c2.57-1.28 3.3-.85 6 0"/><path fill="#df3d4d" d="M491 103v19h-1v-14h-13l-1-4 6.94-.5 3.9-.28C490 103 490 103 491 103"/><path fill="#8f5156" d="m115 68 4 1c-.46 5.03-3 8.15-6 12-2.17-.5-4-1-6-2l1-3h2l.81-1.75A41 41 0 0 1 115 68"/><path fill="#aeb4ba" d="M75 53c-.4 3.51-2.05 6.2-4.32 8.87-2.89 1.94-5.61 1.17-8.89.56L60 62v-2l6.38-3.5 1.82-1.01C72.77 53 72.77 53 75 53"/><path fill="#6c000a" d="M246 141h13c0 6 0 6-2 9l-4-1 1-3-9-1z"/><path fill="#907b8b" d="m60 110 3 2c3.08.84 6.17 1.52 9.29 2.22C75 115 75 115 77 117q-2.94.3-5.87.56l-3.31.32C65 118 65 118 63 117l-1 2h-3c-.1-6.15-.1-6.15 0-8z"/><path fill="#af7f88" d="M203 83h62v3l-3 1v-2l-59-1z"/><path fill="#8d959c" d="m478 170 1 4h2l3-3-1 14-5 1z"/><path fill="#a3949a" d="m37 57 5 3 3-3c3.93 4.9 4.43 7.74 4 14h-1v-6h-4v-2h-3l-1 3v-2l-5 2c.88-6.75.88-6.75 2-9"/><path fill="#b00a19" d="M42 119h2q.3 3.9.56 7.81l.17 2.24c.23 3.32.33 5.76-.73 8.95q-.52 2-1 4c-3.14-7.06-4.4-13.6-2-21.12z"/><path fill="#dd3a4b" d="M287 103v2h44l1 2h-52c2.16-3.24 3.12-4 7-4"/><path fill="#6a0009" d="M278 142h8c1.6 3.21 1.06 6.44 1 10l-2-3c-1.95-.51-1.95-.51-4.12-.69L277 148l-1 3c-.93-3.01-1.04-3.87 0-7h2z"/><path fill="#93010c" d="m364 131 2 5-1.83.18-2.42.26-2.4.24c-2.17.3-4.23.74-6.35 1.32l1 4h-2v-9c4.12-2 7.45-2.18 12-2"/><path fill="#af000e" d="M503 129h12v6l-1.73-.59c-2.72-.5-4-.02-6.52 1.03l-2.14.87-1.61.69z"/><path fill="#b31b28" d="M329 101c5.2 1.37 8 4.74 11 9 1.04 3.12 1.11 5.27 1.1 8.54l-.01 3.25-.03 3.4L341 137h-1c-1.07-5.55-1.29-11-1.43-16.63-.25-5.71-1.16-10.75-5.18-15.11l-1.58-1.14L329 102z"/><path fill="#eb7f8b" d="m579 110 2 1q2.94.22 5.88.32l3.54.12 3.7.12 3.74.13 9.14.31v1a140 140 0 0 1-28 2l-1-3z"/><path fill="#ef8c98" d="M336 108c3 3 2.6 5.82 3 10l-1-3-7.37-.06-2.12-.03c-5.28-.02-5.28-.02-7.51 1.09v-2l-14-1v-1h29l-1-3z"/><path fill="#7d1823" d="M489 88h1v8h-13v-5h12z"/><path fill="#ad6a73" d="m121 63 2 3 2-1 3 9-4-1v-4h-3l-2 6-2-1 2-5-4-1v-4c3-1 3-1 6-1"/><path fill="#b6babd" d="M587 165h6v8l6-1-1 2h-9l-1 8h-1z"/><path fill="#f4f5f5" d="M49 35v14h-5l-2 2c.5-5.64 1.42-9.94 4-15 2-1 2-1 3-1"/><path fill="#e9eaeb" d="M470 166h20v2l-12 1v2h-8z"/><path fill="#a6000c" d="m480.5 129.9 3.06.04 3.07.02 2.37.04 1 6-3-1c-3.45.15-6.89.44-10 2q-.06-3 0-6c1-1 1-1 3.5-1.1"/><path fill="#bc555b" d="M112.19 170.38q.9.3 1.81.62l-.19 3.31c.19 3.69.19 3.69 1.69 5.63L117 181l-3 1c-2.04-1.21-2.04-1.21-4.19-2.94l-2.17-1.71L106 176c.31-1.87.31-1.87 1-4 3-2 3-2 5.19-1.62"/><path fill="#ba1c31" d="M90.69 88.94c5.16 1.65 10.8 4.43 13.58 9.26l.73 1.8c-2.81-.43-4.23-1.17-6.56-2.87-4.3-3.04-9.4-3.95-14.44-5.13 3.66-3 3.66-3 6.69-3.06"/><path fill="#7f020d" d="m261 137-1 9h-1v-5q-2.94.17-5.87.38l-3.31.2C247 142 247 142 245 144v-2l-2-1c6.28-3.33 10.89-4.45 18-4"/><path fill="#d5182b" d="M424 114h1v8h14l1-3c1.22 3.65 1.47 7.2 1.75 11l.2 2.2c.16 2.11.16 2.11.05 5.8l-3 3 1-18h-15v13h-1z"/><path fill="#d40315" d="M399 123h14v8l-1-4h-12l-1 4z"/><path fill="#838c96" d="M500 176h2l1 2h5c.75 1.75.75 1.75 1 4-1.94 2.25-1.94 2.25-4 4-2.44-.62-2.44-.62-5-2-1.47-5.05-1.47-5.05 0-8"/><path fill="#e2bfc4" d="m367 136 31 1 1 2q-6.36.11-12.7.16l-4.33.07-6.21.06-3.78.05L369 139z"/><path fill="#9d000c" d="M426 130c8.57 1 8.57 1 12 2v4l-1.86-.1-2.45-.09-2.43-.1C429 136 429 136 426 139z"/><path fill="#a87079" d="M153 87h1l1 11h2c-1.48 4.45-5.08 6.75-9 9h-2l-1-2-2-1 1.93-.93c6.67-3.69 6.67-3.69 7.89-7.92.22-2.74.3-5.4.18-8.15"/><path fill="#77777c" d="M67 172h24v3q-5.44.05-10.87.06l-3.13.03h-3l-2.75.02C69 175 69 175 67 174z"/><path fill="#99a2aa" d="M435 166h4v14l-5 1z"/><path fill="#fe7896" d="M77 148h5l1.06 3.94.6 2.21L84 156c-1 1-1 1-2.85 1.1L75 157v-5h2z"/><path fill="#84010c" d="m361.56 135.69 2.32-.05c2.6.44 3.47 1.36 5.12 3.36-1 1-1 1-3.72 1.1l-3.34-.04-3.35-.02L356 140l1 5c-2-1.81-2-1.81-4-4v-3c2.96-1.7 5.16-2.3 8.56-2.31"/><path fill="#95000a" d="m578 131 7.62-.1c2.38.1 2.38.1 4.38 1.1q.6 3.49 1 7l-2.19-1.5c-3-1.6-4.47-1.94-7.81-1.5l-3 2z"/><path fill="#d10114" d="M425 123h14v8l-1-4-13 1z"/><path fill="#ed8491" d="M351 110h13c.96 2.88 1.1 4.7 1.06 7.69l-.02 2.45L365 122h-1v-8h-13z"/><path fill="#a6abb0" d="M0 61c3.4 3.09 4.65 6.7 6.19 10.94L7 74.1C8.31 77.63 9 80.2 9 84H7l-3.71-8.79C-.31 66.25-.31 66.25 0 61"/><path fill="#c4c0c4" d="m41 48 1 3h4a364 364 0 0 1-1.37 6.93L44 60c-2.5 1.25-3.41.78-6 0 .5-4.32 1.2-8.03 3-12"/><path fill="#6e7b88" d="M450 182h16l-1 4c-5.79.1-11.3 0-17-1l2-1z"/><path fill="#ab4e59" d="M348 99h15v1l-13 1 15 1v1h-15l.13 5.31c.12 5.31.12 5.31-2.13 8.69z"/><path fill="#5e5860" d="M152 87c.6 7.13.6 7.13-2.12 11.06-2.88 1.94-2.88 1.94-6.2 1.75L141 99c1.38-1.5 1.38-1.5 3-3h2l.25-2.25c.7-2.6 2.5-6.75 5.75-6.75"/><path fill="#8f1e25" d="m181 154 3 1q4.41.23 8.82.32l2.61.06 13.85.31L223 156v1c-29.35 1.2-29.35 1.2-41 1z"/><path fill="#d6182a" d="M276 104h2l-.62 1.65A61 61 0 0 0 274 122h14v1h-14v15h-1q-.11-6.06-.16-12.12l-.07-4.11-.06-5.94-.05-3.6c.37-3.54 1.17-5.43 3.34-8.23"/><path fill="#fcb8bf" d="M439 117v5h-14v-4l5.31-.5 3-.28C436 117 436 117 439 117"/><path fill="#b9212f" d="M191 98h15l-3 4c-3.36.4-3.36.4-7.19.25l-3.85-.1q-1.46-.08-2.96-.15z"/><path fill="#797b7f" d="m37 101 2 2-1 6 2 2c.13 2.63.13 2.63 0 5h-5v-3h-2c.54-4.56 1.8-7.97 4-12"/><path fill="#8b545a" d="M6 88h1l1 8h2v3c1.5 1.69 1.5 1.69 3 3-5.62 2.13-5.62 2.13-9 1v-2H2v-2h2z"/><path fill="#9b5e6a" d="M491 73c-4.57 4.87-9.75 8.9-15 13l-1-4q2.58-2.27 5.19-4.5l2.92-2.53c3.04-2.07 4.3-2.44 7.89-1.97"/><path fill="#5b6168" d="M59 63h2v3h2l1 4 5-1 2 5-10 1z"/><path fill="#870f1a" d="M371 139h39v3h-13v-2h-26z"/><path fill="#b04752" d="m431 102 2 1-1.28 1.64-1.66 2.17-1.65 2.15C427 111 427 111 426 114h-2l-1 25h-1q-.12-4.96-.19-9.94l-.07-2.8c-.09-7.83.81-15.43 6.45-21.32l1.6-1.73z"/><path fill="#ab6b72" d="M143 99v3h-2l-1 3-2 2 2 1-3 2c-.69 3.13-.69 3.13-1 6h-1l.07-1.83.06-2.42.07-2.4c-.22-2.56-.91-4.14-2.2-6.35 5.5-4 5.5-4 10-4"/><path fill="#121418" d="M565 170h11v5h-11z"/><path fill="#e04857" d="M189 105h14l-1 4h-13z"/><path fill="#58141b" d="M489 84c.93 3.01 1.04 3.87 0 7h-12v-4l12-1z"/><path fill="#540005" d="m582 145 5 1 1 7h-7c-.62-2.31-.62-2.31-1-5z"/><path fill="#e60011" d="m66 144 21 1c-2 2-2 2-4.46 2.23l-2.92-.04-2.9-.02c-2.39-.15-4.43-.5-6.72-1.17l-1 3-2 1 1 2-3-1z"/><path fill="#84363e" d="m14 139 1 2 5-1c-1.81 2-1.81 2-4 4h-3l-1 3q-2 .53-4 1l-1.5 1.63L5 151c-2.1-.41-2.1-.41-4-1l2.08-1.64 2.73-2.17 2.71-2.15A60 60 0 0 0 14 139"/><path fill="#c5c9cc" d="M522 165h6c-.87 6.75-.87 6.75-2 9-2.56.63-2.56.63-5 1z"/><path fill="#b39094" d="M131 128a50 50 0 0 1 9.31 4.44l2.12 1.24L144 135c0 3 0 3-1 6h-3l-.56-2.81c-1.55-3.43-1.83-3.71-5.06-5.06L131 132z"/><path fill="#8a4149" d="m474 83 3 2c.3 3.04.3 3.04.19 6.63l-.08 3.6L477 98h-4q-.05-3.19-.06-6.37l-.04-3.6C473 85 473 85 474 83"/><path fill="#7f8a94" d="M532 169h1l1 5h2l1-2 1 8 11 1v1l-5.69.06-3.2.04C537 182 537 182 532 181z"/><path fill="#b00e1c" d="M115 121h2v2h2q-.17 2.94-.37 5.88l-.22 3.3C118 135 118 135 116 137l-1-4-2 3 .68-10.84C114 122 114 122 115 121"/><path fill="#94989c" d="M9 85h2q.46 1.8.94 3.63C13.92 94.09 18.09 96.28 23 99l-1 3c-3.73-1.2-6.9-2.56-10-5-1.74-3.91-2.47-7.76-3-12"/><path fill="#d3d5d7" d="M48 32h2q.12 4.59.19 9.19l.07 2.62c.06 4.88-.02 8.24-3.26 12.19h-1v-5h-3l1-3 5 1-.44-6.31-.24-3.55C48 36 48 36 47 33z"/><path fill="#cb4a56" d="M51 154c5.66.37 10 1.06 15 4l-3 2 2 2c-3.18.31-4.7.19-7.46-1.5l-2.35-1.94-2.4-1.93L51 155z"/><path fill="#b13a43" d="M365 152h32l1 8c-2.67 1.33-4.17.67-7 0l1.94-1.25C395 157 395 157 396 153h-31z"/><path fill="#ba404c" d="m190 140 3 3-3.81 5.94-2.15 3.34C185 155 185 155 182 156c.56-4.35 2.15-7.18 4.56-10.81l1.94-2.96z"/><path fill="#8e0e15" d="M563 128v3c-7.98 4.04-16.3 3.33-25 3.19l-4.66-.04L522 134v-1l36-1v-2z"/><path fill="#a9000e" d="M591 127v8l-1-3-12-1v-3c4.39-.7 8.56-1.1 13-1"/><path fill="#d10213" d="M274 123h14v11h-1v-8l-13 1z"/><path fill="#911018" d="M261 140h1c.48 3.98.06 6.4-2.12 9.69-2.6 3.26-4.82 5.06-8.88 6.31-3.06-.07-6-.45-9-1v-1l2.01-.33c9.8-1.76 9.8-1.76 12.99-4.67a72 72 0 0 0 4-9"/><path fill="#ab2e37" d="M566 141c1 3 1 3-.43 6.14l-2 3.55q-.52.9-1.03 1.84L560 157h-2c.12-4.9.22-8.06 3.44-11.94L564 143z"/><path fill="#e6e8e9" d="M91 79c4.06.47 7.47.88 11 3v3c-3.7.95-6.3.95-10 0z"/><path fill="#a498a0" d="M113 60h7l1 3-6 1-1 3-4-1-1 2v-7l4 1z"/><path fill="#50575f" d="M423 172h1l.1 9.18C424 184 424 184 423 186h-5l1-8 4-1z"/><path fill="#b2b8be" d="M466 172v6h-9l-1-2c3.34-3.5 5.15-4.13 10-4"/><path fill="#e6e8e9" d="M554 168c.93 3.01 1.04 3.87 0 7h-3l-1.3-2.45c-1.7-2.55-1.7-2.55-4.62-3.26l-3.27-.1-3.29-.15L536 169v-1q3.09-.3 6.19-.56l3.48-.32c3.02-.1 5.42.14 8.33.88"/><path fill="#cd2334" d="M115 128h1c.8 8.06-1.35 13.38-6 20l-3 2c.65-5.07 2.85-9.42 5-14h2z"/><path fill="#a3000d" d="M401 132h11v5l-12-1z"/><path fill="#af4752" d="m514.25 100.34 1.75.66-1.6.7c-4.56 2.1-7.94 3.76-10.4 8.3-.9 3.98-1.51 7.95-2 12l-1-3h-2c1.84-8.34 4.18-12.65 10.96-17.96 2.04-1.04 2.04-1.04 4.3-.7"/><path fill="#f4929e" d="m297 112-1.69.75A44 44 0 0 0 288 118v-2l-13-1c2.6-2.6 4-2.38 7.63-2.62l3.24-.23c3.72-.18 7.4-.22 11.13-.15"/><path fill="#786d77" d="M102 92c5.03 1.44 7.17 3.75 10 8-.19 2.88-.19 2.88-1 5-3.25-3.16-6.37-6.3-9-10z"/><path fill="#c78b93" d="m441 138 2.13.97c3.1 1.11 5.55 1.34 8.83 1.44l3.37.12 3.48.1 3.55.11q4.32.15 8.64.26v1l-2.35.08q-5.27.17-10.52.36l-3.71.12-3.54.12-3.27.11C445 143 445 143 443 144l-3-2z"/><path fill="#c5000f" d="M338 125v4l-6.74.78C329 130 329 130 326 130v-4c3.98-1.33 7.85-1.07 12-1"/><path fill="#b295a3" d="m58 103 2 1v2l5 1v2h-3l2.08.55 2.73.76 2.71.74c2.53.97 3.75 1.9 5.48 3.95-11.66-1.7-11.66-1.7-14.87-4.81A21 21 0 0 1 58 103"/><path fill="#7c838b" d="m34 64 1 2 3-1v7h-3v4h-3c-1.64-4.93-.19-7.54 2-12"/><path fill="#656d7a" d="M513 178h4l1 2h4c.63 1.88.63 1.88 1 4l-2 2c-3.12-.37-3.12-.37-6-1z"/><path fill="#bec3c7" d="m446 169 7 1-1 3h4v2l-9 1-1 3z"/><path fill="#947f82" d="m110 167 2 3-8 6 2 1v3c-3.65-1.25-4.78-1.67-7-5z"/><path fill="#5c0007" d="M411 148v15h-1l-1-11c-2.87-.12-2.87-.12-6 0l-2 2v-5c6.63-2.12 6.63-2.12 10-1"/><path fill="#ac1a26" d="M423 119h1l.15 3.61.23 4.7.09 2.38.12 2.3.1 2.1C425 136 425 136 427 139q.89 2.82 1.63 5.69l.78 3L430 150c-4.32-3.72-6.7-7.78-7.23-13.44q-.08-4 .04-8l.04-2.8z"/><path fill="#8c4e58" d="M156 82h3c-.37 1.94-.37 1.94-1 4l-2 1c-.41 2.72-.41 2.72-.62 6.06l-.23 3.35L155 99h-3c-.9-3.01-1.09-5.5-.81-8.62q.07-1.17.17-2.36c.64-2.02.64-2.02 2.7-3.3L156 84z"/><path fill="#e56977" d="m476 107 14 1v3h-13l-1 3z"/><path fill="#ebe9ec" d="m68 78 4 1c.98 3.05.98 4.95 0 8h5l-1 3a85 85 0 0 1-7-2z"/><path fill="#f398a3" d="M413 112v10h-1v-7h-12v7h-1c-.1-6.15-.1-6.15 0-8 1.54-1.54 3.17-1.34 5.31-1.56l2.37-.26c2.1-.16 4.21-.18 6.32-.18"/><path fill="#e15765" d="M351 107h14v6l-1-3h-13z"/><path fill="#a2a1a9" d="M95 98c2.44.81 2.44.81 5 2l1 3-2 3c.36 3.42 1.1 6.69 2 10-2 0-2 0-3.62-1.44-2.03-3.78-1.62-7.35-1.38-11.56h3v-2h-4z"/><path fill="#818b97" d="m550 172 1 3h3l1-3c.63 8.2.63 8.2-2 11.56l-2 1.44 1-4-3-1z"/><path fill="#798490" d="M599 177c3.23 1.21 4 2.01 6 5h3v4c-2.69-.06-2.69-.06-6-1-2-2.14-3.52-4.48-5-7z"/><path fill="#c6cacd" d="M576 166c3.88.88 3.88.88 5 2q.06 3 0 6l-4 1-1-4-11-1v-1h13v-2z"/><path fill="#a02d32" d="m136 135 4 2v4l5-2 1 3 2 1-1 4q-2.77-1.56-5.5-3.19l-3.1-1.79c-2.4-2.02-2.4-2.02-2.74-4.76z"/><path fill="#885e71" d="M93 116a32 32 0 0 1 2 5h-3l-1.18-1.49c-2.95-2.44-6.36-1.82-10-1.7l-2.28.04q-2.78.07-5.54.15c3.48-2.1 6.54-2.4 10.56-2.69l3.44-.26c3-.05 3-.05 6 .95"/><path fill="#f9a4ae" d="m439 114 1 5-1-2-3 1q-2.6.1-5.19.06l-2.73-.02L426 118v-3c4.38-.6 8.58-1.14 13-1"/><path fill="#c01627" d="M74 91a103 103 0 0 1-9 4.06l-2.56 1.04c-2.14.79-4.22 1.4-6.44 1.9 1.2-3.74 3.52-5.47 6.91-7.32 3.74-1.22 7.31-.47 11.09.32"/><path fill="#808b97" d="M427 176c2.38.25 2.38.25 5 1 1.19 2 1.19 2 2 4l2 1-1 2 2 1c-2.19.44-2.19.44-5 0-2.44-2.52-5-5.39-5-9"/><path fill="#eb0c26" d="M70 146h4v5h-3v2h-2v2l-4-1v-2l2-1-1-2 3-1z"/><path fill="#c30005" d="M100 135a40 40 0 0 1 1 6l-2 3-5-1c.38-2.78.67-4.59 2.44-6.81C98 135 98 135 100 135"/><path fill="#dc081d" d="M351 122h14v5l-1-3-1.5.5c-3.53.7-6.9.56-10.5.5l-1 3z"/><path fill="#76747c" d="M44 65h4v6l1.94.88C52 73 52 73 53 75a26 26 0 0 1-9-3z"/><path fill="#c16b73" d="M115 181h2l.1 6.93C117 190 117 190 116 191a86 86 0 0 0-.56 4.56l-.26 2.5L115 200h-2l-.1-8.5c.1-2.5.1-2.5 1.1-3.5q.55-3.5 1-7"/><path fill="#8b3741" d="M358 159h33v1h-32l-1 5h-2z"/><path fill="#91000c" d="M276 135h11v3h-11l-1 5c-.62-1.75-.62-1.75-1-4z"/><path fill="#f9a5b0" d="M351 114h13l-1 4-11-1-1 2z"/><path fill="#bdafb5" d="M112 51h3v9h-2v2l-4-1v-7l3 3z"/><path fill="#a91d29" d="M558 150h2l-2 6h-21v-1c6.7-.8 13.26-1.13 20-1z"/><path fill="#bc000e" d="M477 127h12l1 5-1-2-12 1z"/><path fill="#da081c" d="M551 122h15l-1 2c-3.15 1.05-5.39 1.1-8.69 1.06l-3-.02L551 125z"/><path fill="#faa8b2" d="M477 115h13v5l-1-2h-12z"/><path fill="#cd293b" d="m398 102 14 1v3h-14z"/><path fill="#cfd1d7" d="m65 96 2 1-.81 1.69L66 101a38 38 0 0 0 5 5c-3.38 0-5.83-.87-9-2l-1-5z"/><path fill="#ac5662" d="m202 85-1.64.85C194.89 88.9 193.04 91.1 191 97l-2 1c-.44-3.12-.44-3.12 0-7 3.41-4.15 7.52-7.83 13-6"/><path fill="#e3e5e7" d="M421 165h3l1 3 3 2-1 2-5-2v3h-3c-.12-2.87-.12-2.87 0-6z"/><path fill="#a21c2b" d="M477 96h13v3l-13 1z"/><path fill="#ccced1" d="M601 165h7c-1.87 4.88-1.87 4.88-3 6q-2.5.06-5 0z"/><path fill="#e1bfc3" d="m85.13 160.44 3.32.3L91 161c-2.66 2.66-4.65 2.94-8.36 3.1l-2.39-.04-2.42-.02L76 164l1-3c2.84-1.42 5-.86 8.13-.56"/><path fill="#8f505a" d="M141 147c7 2.6 7 2.6 10 5 .31 3.19.31 3.19 0 6h-2l-.31-1.94L148 154l-3-1v-2l-5-1z"/><path fill="#94000b" d="M337 134c1 1 1 1 1.06 4.56L338 142l-2-4h-11c3.59-4.78 6.4-4.46 12-4"/><path fill="#eb7e8b" d="M399 110h14v2l-14 2z"/><path fill="#675559" d="M131 104h3l2 5h-2l-1 5-2-4h-2c.88-4.87.88-4.87 2-6"/><path fill="#cdcdcf" d="m145 96-7.37 5-2.12 1.45-2.03 1.36-1.88 1.27c-1.6.92-1.6.92-3.6.92 1.34-4.02 3.92-5.16 7.38-7.25l1.78-1.14c4.47-2.73 4.47-2.73 7.84-1.61"/><path fill="#ba2936" d="m475 98 3 1a140 140 0 0 0 6.19.06l3.29-.02L490 99v2h-13l-1 5h-1z"/><path fill="#f18996" d="M552 113h14v3l-13-1v5h-1z"/><path fill="#8a3f49" d="m18 101 1 2 2 1v2h2v-3l3 1-1 6c-4.6-1.49-7.44-3.85-11-7z"/><path fill="#191d24" d="M549 171h1l.06 4.44.04 2.5C550 180 550 180 549 181q-2.77.1-5.56.06l-3.07-.02L538 181v-1h10l-1-5-8-1v-1h10z"/><path fill="#bcbbbe" d="M12 139c-1.4 3.4-2.85 4.87-6 6.75l-2.12 1.3C2 148 2 148 0 148v-3c1.86-1.6 1.86-1.6 4.31-3.19l2.43-1.6C9 139 9 139 12 139"/><path fill="#90000b" d="M261 133v4l-14 2 1-3c2.18-.95 2.18-.95 4.88-1.69l2.67-.76C258 133 258 133 261 133"/><path fill="#b2000f" d="M275 129h12v3l-12 1z"/><path fill="#ba0011" d="M515 127v2h-12v8h-1v-9c4.68-2.49 7.94-1.86 13-1"/><path fill="#fcb4bd" d="m585.63 117.94 5.37.06v3h-13v-2c2.64-1.32 4.68-1.1 7.63-1.06"/><path fill="#dcbec3" d="M367 99v2c-3.07 1.53-6.27 1.1-9.62 1.06L350 102l-1-2 6.75-.5 3.8-.28q3.72-.23 7.45-.22"/><path fill="#4d161e" d="m481 81 1.75 1.38A37 37 0 0 0 489 86c-2.88.96-4.7 1.1-7.69 1.06l-2.45-.02L477 87c1.15-2.47 2.05-4.05 4-6"/><path fill="#aaafb4" d="M501 168c2.12 3.53 2.53 6.94 3 11l-2-1v-2h-2v2h-2l-1-6h4z"/><path fill="#700006" d="M274 152h1v25l4 1-5 3z"/><path fill="#be5e68" d="m4 152 2 1q.12 2.63.19 5.25l.1 2.95c-.33 3.21-1 4.55-3.29 6.8H0c1.88-3.87 1.88-3.87 3-5q.34-2.77.56-5.56l.26-3.07z"/><path fill="#d24553" d="m43 133 1 2h2l3 12-3-1v-3h-2z"/><path fill="#7e3b42" d="m25 131 3 1v5h-2l-2 4v-6h-2v5l-2-1c.34-3.12.62-4.62 2.88-6.87z"/><path fill="#b56b75" d="m367 133 1.63.97c2.87 1.24 5.12 1.35 8.23 1.44l3.38.12 3.51.1 3.56.11q4.35.15 8.69.26v1h-30z"/><path fill="#fcbac1" d="M275 118h12v3h-12z"/><path fill="#dbcbd3" d="M74 109c10.56-.55 10.56-.55 15 3-3.1 1.04-4.84 1.03-8.06.75l-2.66-.2C76 112 76 112 74 109"/><path fill="#7b3d45" d="m12 148 2 1c0 3 0 3-1.81 5.19C10 156 10 156 7 156v8H6c-.63-8.02-.63-8.02 1.88-11.94L10 150z"/><path fill="#9f2028" d="M290 115h4v2l-2 1c-1.4 3.73-1.34 7.8-1.56 11.75l-.13 2.11L290 137h-1l-.09-13.45v-2.86l-.02-2.65C289 116 289 116 290 115"/><path fill="#b53846" d="M260 119c3.19 2.13 3.74 3.11 4.66 6.71.7 4.73.48 9.52.34 14.29h-1l-.08-2.2c-.52-8.87-.52-8.87-3.05-12.24-1.87-2.56-1.87-2.56-1.62-4.94z"/><path fill="#ad2129" d="m600.35 113.9 2.58.01 2.7.03 2.71.01 6.66.05v1h-18l-2 5h-3c1.86-5.18 2.9-6.13 8.35-6.1"/><path fill="#e59ba4" d="m433 102 4 1-2.25 1.69A42 42 0 0 0 428 112h8v1l-9 1-1-3c1.43-2.26 1.43-2.26 3.44-4.69l2-2.45z"/><path fill="#9b313a" d="m209 98 1 4-3 1-1 7h-2q-.37-2.15-.69-4.31l-.38-2.43c.07-2.26.07-2.26 1.36-4.05C206 98 206 98 209 98"/><path fill="#b06e76" d="m44 63-1 6-1-2h-2v7h-2V64c3-1 3-1 6-1"/><path fill="#9e272c" d="m283 173 3 1-2 4h-2v2q-2.45 2.07-5 4l-2-1z"/><path fill="#0c0e0f" d="M538 170h11v3l-11 1z"/><path fill="#776164" d="M49 158q4.23 2.06 8.25 4.5l2.14 1.28L61 165v2c-5.19-.31-8.6-3.3-12-7z"/><path fill="#a30612" d="m57 141 2 1v5h4v2h2l1 3-1 2-3-1c-.69-2.06-.69-2.06-1-4h-4z"/><path fill="#a90007" d="M98 132q2.52.43 5 1v7l-2 1-1-6-5 3c1.88-4.87 1.88-4.87 3-6"/><path fill="#b14854" d="M329 101c5.16 1.37 8.29 4.54 11 9 .75 2.77.9 5.1 1 8a23 23 0 0 1-4.31-7.44c-2.03-4.27-3.98-5.75-7.69-8.56z"/><path fill="#ba515c" d="M559 101c3.74 1.04 6.25 2.52 8.35 5.87 1.48 4.85.32 10.2-.35 15.13h-1l-.26-3.32-.43-4.37-.16-2.18c-.55-5.26-1.91-7.66-6.15-11.13"/><path fill="#8f969b" d="m456 172 4 1-3 1v4l-7 1v-2l-3 1v-2l9-1z"/><path fill="#ba3640" d="m46 170 3 1v2h3v2q-1.94.58-3.87 1.13l-2.18.63L44 177l-2-2z"/><path fill="#dddfe1" d="M510 165h5v6l-7-1z"/><path fill="#9a262e" d="M328 155v2c-3.46 1.07-6.64 1.1-10.25 1.06l-3.27-.02L312 158v-2l8.1-.78c2.65-.2 5.25-.26 7.9-.22"/><path fill="#ad2337" d="M298 155h25v1h-18v2h-4v-2z"/><path fill="#a92f38" d="M245 128c1.3 4.12 2.26 7.67 2 12l-5-1 2-1c.13-5.75.13-5.75-1-8-2.06-1.12-2.06-1.12-4-2 2.5-1.25 3.41-.78 6 0"/><path fill="#e46e7b" d="m202 108 2 2c-1 1-1 1-3.94 1.1l-3.62-.04-3.63-.02L190 111l-1 3v-5q3.18-.33 6.38-.62l3.58-.36z"/><path fill="#65505e" d="m41 104 6 1c-.7 3.67-2.28 6.7-4 10h-2l1.13-3.25c.87-3.75.87-3.75 0-6.19z"/><path fill="#767e8b" d="m49 94 3 1-2.81 4-1.58 2.25L46 103h-3v-2h-2l1-3h3c2.19-2 2.19-2 4-4"/><path fill="#998891" d="M59 90v2l2 1-3.37 3-1.9 1.69C54 99 54 99 52 99c0-2 0-2 2-4l-2-2c4.75-3 4.75-3 7-3"/><path fill="#595f67" d="M0 66c2.51 2.51 2.63 3.46 3 7-.22 3.35-.58 6.67-1 10H0z"/><path fill="#cacdd0" d="M75 53c-.37 2.71-.81 3.82-2.81 5.75C70 60 70 60 66 60c.13-1.81.13-1.81 1-4 5.04-3 5.04-3 8-3"/><path fill="#4d545c" d="M539 183h12v2c-2.88.96-4.7 1.1-7.69 1.06l-2.45-.02L539 186z"/><path fill="#636b74" d="M592 177h1v8l-6 1 1-3q.51-2 1-4h2z"/><path fill="#cacdd0" d="m533 168 15 1v1l-2.05.08c-7.39.47-7.39.47-10.51 2.98L534 175h-1z"/><path fill="#820009" d="M581 135c5.8.37 5.8.37 8 1 2 3 2 3 1.63 5.19L590 143l-1-5c-7.43-.29-7.43-.29-11 2 1.88-3.87 1.88-3.87 3-5"/><path fill="#a3000e" d="m364 131 1 3-13 1v-2c4.12-2 7.45-2.18 12-2"/><path fill="#c80013" d="M259 124v3c-6.11.1-11.97.07-18-1v-1l7.31-.5 2.1-.14c2.87-.2 5.71-.36 8.59-.36"/><path fill="#f7a2ab" d="M322 114q2.88-.08 5.75-.12l3.23-.08A13 13 0 0 1 338 116l-2.55.15-3.32.22-3.31.22C326 117 326 117 324 119z"/><path fill="#a40d22" d="m60 110 4 4-2 5h-3c-.1-6.15-.1-6.15 0-8z"/><path fill="#a12633" d="M471 99c1.23 3.68.9 6.91.56 10.75l-.3 3.55-.26 2.7c-2-2-2-2-2.2-5.04l.07-3.58.06-3.6.07-2.78h2z"/><path fill="#586270" d="m111 100 1.69 1.56C115 103 115 103 117.75 102.7L120 102l1 2c-1.19 1.56-1.19 1.56-3 3-2.5 0-2.5 0-5-1-1.81-2.56-1.81-2.56-3-5z"/><path fill="#bd606a" d="M112 75v2l5-2-4 6c-2.17-.5-4-1-6-2l1-3c2-1 2-1 4-1"/><path fill="#a1a8ad" d="M157 61h2a38 38 0 0 1-4 13l-2 1a40 40 0 0 1 4-14"/><path fill="#c5626c" d="M44 176v2l-2 1a129 129 0 0 0-2 7h-2c-.3-6.05-.3-6.05 0-8 3-2 3-2 6-2"/><path fill="#b8353b" d="m112.25 170.31 1.75.69v6c-2.87-.57-3.86-.86-6-3l-2-1c3.45-3.08 3.45-3.08 6.25-2.69"/><path fill="#a18f91" d="m50 169 9 5v3c-4.43-1.2-6.98-2.52-10-6z"/><path fill="#6a5a5d" d="M114 151h3v2h2v2l-5-1-.75 1.88c-1.46 2.47-2.63 3.07-5.25 4.12a32 32 0 0 1 6-9"/><path fill="#8a0d15" d="M352 142a32 32 0 0 1 6.06 3.56C360 147 360 147 363 148v2l2 1c-5.64-.4-8.07-2.16-12-6z"/><path fill="#fcbbc2" d="M400 119c4.16-.08 7.95.02 12 1v2h-12z"/><path fill="#8e3c42" d="M259 87h2a129 129 0 0 1-5 13l-2-1c1.94-8.94 1.94-8.94 5-12"/><path fill="#8c939b" d="m53 84 1 2 10-2 1 2c-5.68 2.5-8.94 3.39-15 2z"/><path fill="#8c5256" d="M40 71c3.8 1.5 5.61 3.76 8 7l-4.44-.87-2.5-.5L39 76l-1-2h2z"/><path fill="#99252d" d="M409 165h2c1 3 1 3 0 5.19-2 1.81-2 1.81-5.69 2.06L402 172l2.38-1.81C407 168 407 168 409 165"/><path fill="#dcdfe1" d="M588 166h4v4h-3l-1 12h-1q-.04-2.87-.06-5.75l-.04-3.23A25 25 0 0 1 588 166"/><path fill="#a43139" d="M506 147c3.88 2.63 3.88 2.63 5 6a34 34 0 0 0 3 3l-2 1c-5.87-3.75-5.87-3.75-7-6 .44-2.12.44-2.12 1-4"/><path fill="#d30010" d="M477 123h13v3h-13z"/><path fill="#e7e0e5" d="M65 99c3 1 3 1 6 3l1 3a90 90 0 0 0 4 4c-3.57-.3-4.74-.71-7.19-3.44L67 103l-2-2z"/><path fill="#75636e" d="M107.69 74.38 110 75l-3 4 2 1c-5.75.13-5.75.13-8-1 1.29-3.87 2.52-5.2 6.69-4.62"/><path fill="#787e88" d="m92 65 3 1-1 4h-2v2l-5 1 1-5h2z"/><path fill="#9fa8ae" d="M96 61c-.31 1.94-.31 1.94-1 4l-3 1c-1.69 2.06-1.69 2.06-3 4v-8c3-1 3-1 7-1"/><path fill="#ededee" d="m110 47 6 1 1 4-5-1-1 3c-1-1-1-1-1.06-4.06z"/><path fill="#5f6873" d="m478 178 4 1v7h-4z"/><path fill="#675456" d="M146 158h2l3.13 7.62C152 168 152 168 152 170c-3-1-3-1-3.95-2.74l-.74-2.13-.76-2.12C146 161 146 161 146 158"/><path fill="#c80011" d="M364 124v3l-12 1v-3c4.08-.54 7.87-1 12-1"/><path fill="#6a5760" d="M111 103c3.96 4.24 5.43 8.55 7 14h-3l-2-5.31-1.12-3C111 106 111 106 111 103"/><path fill="#bb737b" d="M15 103a47 47 0 0 1 5 5 29 29 0 0 1-8-3l-1 2-3-2v-2c2.8-1.4 4.03-.97 7 0"/><path fill="#d0d1d4" d="m89 95 6 2v3h-2v2h-3l-1 3v-4h2v-2l-2-1z"/><path fill="#98363f" d="M491 91h2v11l-3 1-.1-8.5c.1-2.5.1-2.5 1.1-3.5"/><path fill="#85888f" d="M121 65h3c2 2.99 2.94 5.6 4 9l-4-1v-4h-3z"/><path fill="#727781" d="M99 61c1.36 2.72.7 4.18.06 7.13l-.59 2.75Q98.25 71.93 98 73l-3-3 2-5-2-1c1-2 1-2 4-3"/><path fill="#b1b5ba" d="M120 56c4.13 6.2 4.13 6.2 3.63 9.25L123 67c-2-2-2-2-2.87-4.06C119 61 119 61 116.88 60.25L115 60l5-2z"/><path fill="#6d767e" d="M560 166h1v11h6l-1.94.63c-2.06 1.37-2.06 1.37-2.81 4.5L562 185h-1c-1-4.16-1.1-8.04-1.06-12.31l.02-3.8z"/><path fill="#fb5172" d="M77 147h8v4l3 1-1.94.38L84 153l-1 2-1-7h-5z"/><path fill="#78020c" d="M335 140v1l-1.86.37-2.45.5-2.43.5C326 143 326 143 323 145h-4v-2c5.72-2.45 9.79-3.33 16-3"/><path fill="#b10011" d="m262 128-1 4v-2l-13 2v-2l5.88-1.56 3.3-.88C260 127 260 127 262 128"/><path fill="#b52a36" d="M439 119c2.44 3.66 2.55 6.75 2.81 11l.2 2.2c.13 2.11.13 2.11-.01 5.8l-3 3z"/><path fill="#ad4851" d="m584 102 2 1-1.24 1.29c-3.8 4.12-5.64 7.22-6.76 12.71h-1c-.25-7.62-.25-7.62 2-11h2v-2z"/><path fill="#d53241" d="M556 103c4.88 1.75 4.88 1.75 6 4h-17v-1h11z"/><path fill="#e5bdc2" d="M326.19 100.5c4.28.76 6.75 3.54 9.81 6.5l-1 2-2-1.87c-3.7-2.63-6.58-3.23-11-4.13 2-2 2-2 4.19-2.5"/><path fill="#b9b5bb" d="m65 90-2 2h-4v-2l-3.37 2.06c-1.9 1.16-1.9 1.16-3.63 1.94l-2-1c9.21-6.64 9.21-6.64 15-3"/><path fill="#bd9ba1" d="M486 73h5c-3.8 3.92-7.82 7.5-12 11l-2-1 1.71-1.43 2.23-1.88 2.21-1.87C485 76 485 76 486 73"/><path fill="#464d53" d="M462 182h4l-1 4h-10l1-2c3.06-.62 3.06-.62 6-1z"/><path fill="#74818c" d="M563 178h3v7h-4q-.06-3 0-6z"/><path fill="#9da4ab" d="M510 173c1.2 3.62.54 4.64-1 8l-1-3-3 1v-5z"/><path fill="#dcdfe1" d="M436 166h3v9h-3z"/><path fill="#a91c31" d="M62 162c5.41.47 9.2 1.24 14 4l-2 2-4.87-1.87-2.75-1.06C64 164 64 164 62 162"/><path fill="#854449" d="m133 147 2.31.94q2.82 1.1 5.69 2.06c.69 2.06.69 2.06 1 4a53 53 0 0 1-10-5z"/><path fill="#b0303c" d="m23 141 2 2c-.37 2.13-.37 2.13-1 4h-4v-2l-2-1z"/><path fill="#b53e4c" d="M517 131h1l1.37 6.05C520 139 520 139 522 141h-4l-1 2-2-6h2z"/><path fill="#ac000d" d="M426 130c8.57 1 8.57 1 12 2l-1 2h-11z"/><path fill="#ac3138" d="M188 113c2.57 1.28 2.9 2.5 4.13 5.06l1.07 2.23.8 1.71-2 2c-2.7-2.87-3.95-4.31-4.25-8.31z"/><path fill="#f6a1ac" d="M191 115h16v1h-13l1 4h-3z"/><path fill="#a75660" d="m144 106 3 1-4 6-5-1 1-3h4z"/><path fill="#5f5c62" d="m153 105 3 2a345 345 0 0 1-4.31 3.06l-2.43 1.73L147 113l-3-1q4.43-3.6 9-7"/><path fill="#b8bcc1" d="M67 78c2.15 3.23 2.2 4.28 2 8h-4v-6l-2-1z"/><path fill="#646b76" d="m69 69 2 5h-6l-2-4c2-1 2-1 6-1"/><path fill="#aeb1b4" d="m110 71-4.37 3.5-2.47 1.97C101 78 101 78 99 78l1-3h2v-2c4.39-3.2 4.39-3.2 8-2"/><path fill="#646f7c" d="m501 180 6 1-2 5-5-2z"/><path fill="#8f0d17" d="M287 153h1l1 19-4 2 1-3q.21-2.1.32-4.23l.12-2.43.12-2.53.13-2.56z"/><path fill="#d08990" d="M98 158c-2.18 2.5-3.67 3.62-7 4q-3-.4-6-1a24 24 0 0 1 13-3"/><path fill="#f0718c" d="m75 152 1 4h2v-3h5l1 3c-1 1-1 1-2.85 1.1L75 157z"/><path fill="#999599" d="M153 142a24 24 0 0 1 5 3c.81 2.69.81 2.69 1 5h-2a159 159 0 0 1-5-6z"/><path fill="#630009" d="M400 145c6.63-.12 6.63-.12 10 1l-1 2c-2.07.41-2.07.41-4.56.63l-2.5.22-1.94.15z"/><path fill="#a10006" d="M57.38 132.75C60 133 60 133 61.8 134.5L63 136l-1 2-6-2-1 3a88 88 0 0 1-1-5c1-1 1-1 3.38-1.25"/><path fill="#a4000d" d="m338 131-1 4h-9l1-3c2.97-1.17 5.85-1.09 9-1"/><path fill="#b02732" d="m517 115 3 2-1 3q-.33 2.85-.56 5.69l-.26 3L518 131h-1q-.3-3.44-.56-6.87l-.32-3.87C516 117 516 117 517 115"/><path fill="#9f242c" d="M567 112h2q.12 2.69.19 5.38l.1 3.02-.29 2.6-3 2z"/><path fill="#7e444b" d="m139 111 1 2 5-1-1 3c-3.06 1.19-3.06 1.19-6 2l-1-5z"/><path fill="#a9666c" d="m20 108 4 2v10l-3-1 .04-1.9.02-2.47.04-2.47C21 110 21 110 20 108"/><path fill="#b4b1b8" d="M101 91c2.13-.37 2.13-.37 5 0a46 46 0 0 1 6 6l-1 2-1.46-1.28-1.92-1.66-1.9-1.65C104 93 104 93 102 92l1 3-4-2h2z"/><path fill="#62141c" d="M489 89v2h-12v-2a26 26 0 0 1 12 0"/><path fill="#5a0108" d="m358 166 2 1v4h10v1h-13z"/><path fill="#6d595c" d="M108 160v2c-1.68 1.29-1.68 1.29-3.87 2.63l-2.18 1.35C100 167 100 167 98 167c1.54-4.63 5.12-7 10-7"/><path fill="#cc3a4c" d="M95 157h4v2l2 1c-4.1 2.99-6.98 3.3-12 3l8-4z"/><path fill="#e82648" d="M92 153v2l-9 2 1-4c2.86-1.43 4.93-.6 8 0"/><path fill="#b10d21" d="M97 149c-.81 2.44-.81 2.44-2 5l-3 1v-2l-2-1c2.5-3 2.74-3 7-3"/><path fill="#b64751" d="M391 152h6l1 8c-2.67 1.33-4.17.67-7 0l1.94-1.25c2.27-1.93 2.66-2.86 3.06-5.75h-5z"/><path fill="#a5323a" d="M492 139c1.1 3.32.94 3.93-.25 7.06l-.77 2.1C490 150 490 150 487 152a42 42 0 0 1 3.06-8.75l1.1-2.42z"/><path fill="#b73d49" d="M474 128h1l1 14-2 1v-2l-3-1 2-3c.41-2.26.41-2.26.63-4.69l.22-2.45z"/><path fill="#96000b" d="m514 132 1 3-1.73-.59c-2.72-.5-4-.02-6.52 1.03l-2.14.87-1.61.69c.31-1.94.31-1.94 1-4 3.47-1.16 6.36-1.07 10-1"/><path fill="#6c4f5d" d="M65 118c5.14.64 10 1.68 15 3v1q-3.2-.14-6.37-.31l-3.6-.18L67 121z"/><path fill="#5e626a" d="M35 109c3.88.88 3.88.88 5 2q.06 2.5 0 5h-5l.56-2.37C36 111 36 111 35 109"/><path fill="#903338" d="m630 101 1 2c-1 2.38-1 2.38-2.44 5.13l-1.43 2.75L626 113h-2a23.3 23.3 0 0 1 6-12"/><path fill="#e0b2b7" d="M555 101c4.4.37 6.74 2.12 10 5l-1 3-2.75-2.37A28 28 0 0 0 554 102z"/><path fill="#7e8993" d="M448 177h2v4l2 1h-2v2l-4-2c.88-3.87.88-3.87 2-5"/><path fill="#bcbdc0" d="M522 165h6v4h-6z"/><path fill="#9a2d36" d="m433 153 10 3v2c-7.5-.62-7.5-.62-10-2.56l-1-1.44z"/><path fill="#a03039" d="M486 154c-3.96 2.76-7.22 3.53-12 4v-2q2.15-.8 4.31-1.56l2.43-.88C483 153 483 153 486 154"/><path fill="#cc1f2e" d="M51 150c2.89.4 3.82.79 5.75 3.06L58 155l-2 1c-2.62-.94-2.62-.94-5-2z"/><path fill="#8d676d" d="m148 144 5 2v2l4 2-3 1c-3.19-1.75-3.19-1.75-6-4z"/><path fill="#86585d" d="M10 145v2c-2.25 2.19-2.25 2.19-5 4-2.31-.25-2.31-.25-4-1 5.63-5 5.63-5 9-5"/><path fill="#a3333e" d="M293 141c2 2 2 2 2.09 4.71l-.31 6.44c.22 2.85.22 2.85 1.72 4.73L298 158l-5-1z"/><path fill="#af0110" d="m358.63 129.94 5.37.06v1l-3.19.44c-6.57.97-6.57.97-8.81 1.56l-1 2v-4c2.64-1.32 4.68-1.1 7.63-1.06"/><path fill="#d11725" d="M41 126h2c1.86 3.13 2.2 5.37 2 9l-3-1c-1.35-2.7-1.07-5-1-8"/><path fill="#c2acb7" d="M61 108c10.56.78 10.56.78 15 3v1c-10.56-.78-10.56-.78-15-3z"/><path fill="#6c5759" d="m7 106 1.64 1.24 2.17 1.64 2.15 1.61q2.47 1.82 5.04 3.51c-3.42.4-4.79.13-7.75-1.75-2.32-2.32-2.66-3.18-3.25-6.25"/><path fill="#d72e3f" d="M437 103c3.85.24 5.76.84 9 3h-12z"/><path fill="#c4c0c5" d="m103 89 1 2h-3v2c-4.75-.75-4.75-.75-7-3 2.96-1.48 5.74-1.06 9-1"/><path fill="#848c95" d="M110 90q2.5.97 5 2l-3 1-1.94.81L108 94c-2.25-1.94-2.25-1.94-4-4 2.57-1.28 3.3-.85 6 0"/><path fill="#646168" d="m51 75 5 1v3c-3.33 3-3.33 3-6 3v-2h2z"/><path fill="#cfd1d3" d="M49 70a27 27 0 0 1 10 6v2c-3.95-1.67-6.82-4.18-10-7z"/><path fill="#aeb3b9" d="m430 172 4 5-1 2-2-2-3.06-1c-2.94-1-2.94-1-3.94-3l6 1z"/><path fill="#bbc0c3" d="m553 168 2 1-1 6h-3l-2-5h4z"/><path fill="#b6b0b0" d="M112 166a19 19 0 0 1 7 5l-3 1c-2.69-1.44-2.69-1.44-5-3z"/><path fill="#d16c77" d="M22 135h2c.31 2.81.31 2.81 0 6-2.39 1.89-3.92 3-7 3v-2l5-2z"/><path fill="#e73d53" d="M115 128h1c.35 5.84.17 9.85-3 15-1.24-3.72-.57-5.44.44-9.19l.87-3.29z"/><path fill="#fdbbc3" d="m510.69 118.94 2.45.59q.91.22 1.86.47v1h-13c1.96-3.93 5.05-2.96 8.69-2.06"/><path fill="#b13a43" d="M41 181h1v8h-5v-3h3z"/><path fill="#9ca1a7" d="m520 171 2 3c2.13.69 2.13.69 4 1l-2 5-1-3h-3z"/><path fill="#b5b8bc" d="M515 167c1.88 3.27 2.5 6.28 3 10l-7-4 2-1 2 1z"/><path fill="#a41d32" d="M89 163h5c-1.7 2.04-2.64 2.92-5.26 3.51l-2.43.18-2.45.2L82 167l1-2h6z"/><path fill="#9e3a44" d="M566 141c1 3 1 3 .22 4.82L563 151c-.69-2.5-1-4.38-1-7 2-1.69 2-1.69 4-3"/><path fill="#bc000e" d="m326 127 3.75-.12 2.1-.08c2.45.23 4.04 1 6.15 2.2l-6.74.78C329 130 329 130 326 130z"/><path fill="#64626a" d="m6 82 1 2h2l1-2 1 11c-2-3-2-3-2.94-5.12C7 86 7 86 4 85l2-1z"/><path fill="#e5e5e7" d="m93 85 8 3-1 2h-8z"/><path fill="#46121a" d="M489 79h1v5l-5 1-2-3 6-1z"/><path fill="#a23c48" d="m44 188 2 1c.41 2.5.41 2.5.63 5.56l.22 3.07L47 200h-4v-3h2z"/><path fill="#55606b" d="M419 180h3l1 6h-5z"/><path fill="#804247" d="m144 139 4 4c-.37 2.13-.37 2.13-1 4l-3-2v-3l-2-1z"/><path fill="#9c000b" d="M248 133h10c-3.44 2.3-5.94 2.54-10 3z"/><path fill="#585a64" d="m118 111 3 2c.69 3.63.69 3.63 1 7h-3z"/><path fill="#a6272d" d="M552 115c.19 2.63.19 2.63 0 5h-2v-4l-7-1v-1c5.63-1.25 5.63-1.25 9 1"/><path fill="#a4142c" d="M96 108c3 1 3 1 4.19 2.88.81 2.12.81 2.12.81 5.12h-2c-2.74-2.95-3-3.77-3-8"/><path fill="#c2a7ac" d="M199.63 86.88 203 87a61 61 0 0 1-7.19 4.13l-2.17 1.07-1.64.8c2.78-5.96 2.78-5.96 7.63-6.12"/><path fill="#645863" d="m120 68 4 1-1 4h-2l-2 4c0-3.11.46-5.94 1-9"/><path fill="#bdc0c3" d="M46 36c1.6 4 .48 7.09-1 11l-3 1 1.44-4.87.8-2.75C45 38 45 38 46 36"/><path fill="#626a72" d="M578 181h3l1 5h-4c-.56-1.94-.56-1.94-1-4z"/><path fill="#9da4ac" d="M532 169h1l1 5h2v4h-4z"/><path fill="#a6353a" d="M408 172c-3.2 2.83-5.78 3.52-10 4v-2c3.4-2.1 6.05-2.18 10-2"/><path fill="#9e1b26" d="M510 151c1.85.34 1.85.34 4.06.94l2.23.59 1.71.47v2c-6.75-.75-6.75-.75-9-3z"/><path fill="#b40011" d="M429 129h9v3c-6.75-.75-6.75-.75-9-3"/><path fill="#a36173" d="m63 113 6 2v3l-5-1z"/><path fill="#bbbfc6" d="M60 99c2 3 2 3 2 6l2 1-2 1-4-4z"/><path fill="#f8f9fa" d="M75 96v2c-3.48 1.16-5.46.7-9 0l1-2c3.28-.95 4.7-1.1 8 0"/><path fill="#8f909a" d="M102 92c4.88 1.75 4.88 1.75 6 4l-2 2-4-2z"/><path fill="#636c76" d="m109 92 6 1-1 2a140 140 0 0 0-1 4c-4-4.75-4-4.75-4-7"/><path fill="#625a62" d="m0 84 4 2-2 7H0z"/><path fill="#a0616e" d="m202 85-3.87 2.44-2.18 1.37C194 90 194 90 192 91c.13-1.81.13-1.81 1-4 5.19-3.27 5.19-3.27 9-2"/><path fill="#8a9196" d="m4 76 4 1 1 7H7c-3-5.75-3-5.75-3-8"/><path fill="#6b7984" d="M158 65h1v10l-2 1c-1.23-6.4-1.23-6.4-.06-9.44z"/><path fill="#66626d" d="M37 65h1v7l-4-1c1.88-4.87 1.88-4.87 3-6"/><path fill="#767f8a" d="M44 65h4v5l-3 1z"/><path fill="#989da4" d="m46 61 3 2c.4 2.71.13 5.24 0 8h-1v-6h-4z"/><path fill="#aea4a9" d="m36 61 5 2-1 3v-2l-5 2z"/><path fill="#d0d2d4" d="M83 53c2.96.61 4.38 1.25 7 3v2c-2.37-.25-2.37-.25-5-1-1.31-2.06-1.31-2.06-2-4"/><path fill="#5c5b60" d="M31 180h3c1.46 2.65 2 3.9 2 7l-3-1c-1.19-3.06-1.19-3.06-2-6"/><path fill="#545c65" d="m602 181 6 1v4h-4z"/><path fill="#9a1219" d="m277 178 3 1c-2.31 2.5-2.31 2.5-5 5h-3l1-3 2 1z"/><path fill="#9da4ab" d="m550 172 1 3h3l1-3v8c-2.5-1.75-2.5-1.75-5-4z"/><path fill="#635e60" d="M67 172h8l-2 3-6-1z"/><path fill="#fdfbfc" d="m77 161 8 1v2h-9z"/><path fill="#ff183a" d="M85 146h3l2 5-2 1-3-1z"/><path fill="#636267" d="m31 104-2 8h-2v-7c2-1 2-1 4-1"/><path fill="#796167" d="M131 104h3l2 5-5-1-1-3z"/><path fill="#b24350" d="M276 104h2l-3 9-2-1c.55-3.37 1.05-5.08 3-8"/><path fill="#65595f" d="M144 96c2.69.31 2.69.31 5 1l-2 3-6-1c1.19-1.56 1.19-1.56 3-3"/><path fill="#ddd" d="M15 96c3.37.55 5.08 1.05 8 3l-1 3q-1.76-1.2-3.5-2.44l-1.97-1.37L15 97z"/><path fill="#a91727" d="M59 93q2.52.43 5 1c-2.62 2.15-4.64 3.4-8 4 1.88-3.87 1.88-3.87 3-5"/><path fill="#c7cacd" d="m104 84 9 6-3 1c-1.82-1-1.82-1-3.69-2.44l-1.88-1.43L103 86z"/><path fill="#8f616b" d="M256 83h9v3l-3 1v-2l-6-1z"/><path fill="#a4a7ac" d="m91 79 7 1-5 5c-2-3.75-2-3.75-2-6"/><path fill="#a05661" d="m115 68 2 1c-.31 1.88-.31 1.88-1 4l-3 2-3-1z"/><path fill="#a05963" d="M40 67h4v5l2 1c-2.17-.5-4-1-6-2z"/><path fill="#cccecf" d="M114 42c2.36 2.36 2.5 3.78 3 7l-7-2v-2h3z"/><path fill="#bcbdbe" d="M546 165h5l1 2c-3.47 1.16-6.36 1.07-10 1l4-1z"/><path fill="#7b0107" d="m189 148 1 4 6 1v1h-9c.88-4.87.88-4.87 2-6"/><path fill="#ad3744" d="M185 148h1v6l-4 2c.55-3.37 1.05-5.08 3-8"/><path fill="#fe2144" d="M71 146h3v5h-3l-1 2z"/><path fill="#c15661" d="M141 147c4.88 1.75 4.88 1.75 6 4h-6z"/><path fill="#950b17" d="M261 140h1c.37 5.42.37 5.42-1.5 8.38L259 150l-2-1z"/><path fill="#c5c6c8" d="m5 142 1 3c-3.75 3-3.75 3-6 3v-3c2.5-1.69 2.5-1.69 5-3"/><path fill="#ae0004" d="m94 138 1 2-1 3 3 1c-3.01.93-3.87 1.04-7 0 0-2 0-2 2-4.12z"/><path fill="#f8010e" d="M60 141h5l-2 4h-3z"/><path fill="#df0009" d="M95 138h3v5h-4z"/><path fill="#a5000c" d="M504 131h11l-1 2-3.25-.06c-2.9.05-5.04.2-7.75 1.06z"/><path fill="#c0b5b6" d="m25 128 3 1-5 5-3-1h2l.94-1.94C24 129 24 129 25 128"/><path fill="#b90815" d="m565 123 1 4-4 2-1-3c1-2 1-2 4-3"/><path fill="#6a6e74" d="M158 99h1v6l-5 1 1-3h2z"/><path fill="#58606c" d="M50 89c3.13-.19 3.13-.19 6 0-2.31 2.06-2.31 2.06-5 4l-3-1z"/><path fill="#6d5358" d="M106 80h4v2h5v2l-4 1v-2l-5-2z"/><path fill="#808992" d="m109 63 6 1-1 3-4-1-1 2z"/><path fill="#abacb0" d="M35 174c.63 1.88.63 1.88 1 4l-2 2h-3c1.15-2.47 2.05-4.05 4-6"/><path fill="#8d8f93" d="M461 172h5v5h-2v-2h-2z"/><path fill="#630003" d="m279 173 4 1c-1.19 1.5-1.19 1.5-3 3-2.69.19-2.69.19-5 0v-2h3z"/><path fill="#6e5a5c" d="m49 158 6 3v3c-2.62-1.05-3.8-1.65-5.25-4.12z"/><path fill="#ba0e1f" d="M115 137c1.4 4.18-.18 6.13-2 10h-2a57 57 0 0 1 4-10"/><path fill="#be6872" d="m18 136 1 4-4 1-1-3z"/><path fill="#9c0007" d="M98 132q2.52.43 5 1v7h-1l-.25-2.37c-.75-2.63-.75-2.63-2.81-3.94L97 133z"/><path fill="#565b68" d="M76 120h8l1 2h-2v2h-2l-1-2c-2.06-1.12-2.06-1.12-4-2"/><path fill="#606167" d="M124 111h2l1 8h-2z"/><path fill="#616366" d="M1 104c2.38.25 2.38.25 5 1a13 13 0 0 1 2 4c-4.75-1.87-4.75-1.87-7-3z"/><path fill="#b35a62" d="m44 77 7 1-3 1v3l-3-1c-.69-2.06-.69-2.06-1-4"/><path fill="#9b5d69" d="m493 70-1 5-5-1v-2c3-2 3-2 6-2"/><path fill="#7c454a" d="M28 141h2v6l-3 1z"/><path fill="#754c4f" d="M133 118h3l-2 4h-3z"/><path fill="#704d50" d="M11 157h3v2h-3z"/><path fill="#695353" d="M39 153h3v2h-3z"/><path fill="#874f56" d="M25 119h2v3h-2z"/><path fill="#495b6c" d="M312 0h3v2h-3z"/><path fill="#5f585a" d="M108 181h2v2h-2z"/><path fill="#725b5b" d="M64 171h2v2h-2z"/></svg>